<svg width="40" height="40" viewBox="0 0 40 40" fill="none" xmlns="http://www.w3.org/2000/svg">
<mask id="mask0_146_1399" style="mask-type:alpha" maskUnits="userSpaceOnUse" x="0" y="0" width="40" height="40">
<rect width="40" height="40" fill="#D9D9D9"/>
</mask>
<g mask="url(#mask0_146_1399)">
<path d="M12.5963 35.8334C11.171 35.8334 9.96528 35.3403 8.97917 34.3542C7.99306 33.3681 7.5 32.1624 7.5 30.7371V9.58335C7.5 8.08974 8.0225 6.81363 9.0675 5.75502C10.1122 4.69613 11.3953 4.16669 12.9167 4.16669H32.5V28.1409C31.7564 28.1409 31.1378 28.3946 30.6442 28.9021C30.1506 29.4096 29.9037 30.0213 29.9037 30.7371C29.9037 31.4807 30.1506 32.0993 30.6442 32.5929C31.1378 33.0865 31.7564 33.3334 32.5 33.3334V35.8334H12.5963ZM12.5963 33.3334H28.17C27.9283 32.955 27.7403 32.5539 27.6058 32.13C27.4711 31.7059 27.4037 31.2415 27.4037 30.7371C27.4037 30.2607 27.4668 29.8035 27.5929 29.3654C27.719 28.9274 27.9114 28.5192 28.17 28.1409H12.5963C11.8526 28.1409 11.234 28.3946 10.7404 28.9021C10.2468 29.4096 10 30.0213 10 30.7371C10 31.4807 10.2468 32.0993 10.7404 32.5929C11.234 33.0865 11.8526 33.3334 12.5963 33.3334ZM10 26.4071C10.3783 26.1485 10.7794 25.9561 11.2033 25.83C11.6275 25.7042 12.0918 25.6413 12.5963 25.6413H30V6.66669H12.9167C12.0875 6.66669 11.3942 6.95252 10.8367 7.52419C10.2789 8.09558 10 8.78196 10 9.58335V26.4071ZM14.8142 21.4742H16.5192L17.5287 18.6763H22.4296L23.4392 21.4742H25.1283L20.8717 10.1925H19.0608L14.8142 21.4742ZM18.0479 17.1925L19.9487 11.9742H20.0258L21.9104 17.1925H18.0479Z" fill="#19111D"/>
</g>
</svg>
