<svg width="28" height="28" viewBox="0 0 28 28" fill="none" xmlns="http://www.w3.org/2000/svg">
<mask id="mask0_636_328" style="mask-type:alpha" maskUnits="userSpaceOnUse" x="0" y="0" width="28" height="28">
<rect width="28" height="28" fill="#D9D9D9"/>
</mask>
<g mask="url(#mask0_636_328)">
<path d="M3.57496 22.75C3.07349 22.75 2.64396 22.5712 2.28637 22.2136C1.92879 21.856 1.75 21.4265 1.75 20.925V7.07496C1.75 6.57349 1.92879 6.14396 2.28637 5.78638C2.64396 5.42879 3.07349 5.25 3.57496 5.25H24.425C24.9265 5.25 25.356 5.42879 25.7136 5.78638C26.0712 6.14396 26.25 6.57349 26.25 7.07496V20.925C26.25 21.4265 26.0712 21.856 25.7136 22.2136C25.356 22.5712 24.9265 22.75 24.425 22.75H3.57496ZM3.57496 21.2841H24.425C24.5298 21.2841 24.6159 21.2504 24.6832 21.1832C24.7504 21.1159 24.7841 21.0298 24.7841 20.925V7.07496C24.7841 6.97015 24.7504 6.88411 24.6832 6.81683C24.6159 6.74955 24.5298 6.71592 24.425 6.71592H3.57496C3.47015 6.71592 3.38411 6.74955 3.31683 6.81683C3.24956 6.88411 3.21592 6.97015 3.21592 7.07496V20.925C3.21592 21.0298 3.24956 21.1159 3.31683 21.1832C3.38411 21.2504 3.47015 21.2841 3.57496 21.2841ZM9.81342 19.4752H18.1866V17.6951H9.81342V19.4752ZM6.20287 15.4627H7.98263V13.683H6.20287V15.4627ZM10.8013 15.4627H12.5813V13.683H10.8013V15.4627ZM15.4187 15.4627H17.1987V13.683H15.4187V15.4627ZM20.0174 15.4627H21.7971V13.683H20.0174V15.4627ZM6.20287 11.4581H7.98263V9.67808H6.20287V11.4581ZM10.8013 11.4581H12.5813V9.67808H10.8013V11.4581ZM15.4187 11.4581H17.1987V9.67808H15.4187V11.4581ZM19.9611 11.5141H21.7411V9.73408H19.9611V11.5141Z" fill="#254038"/>
</g>
</svg>
