<svg width="40" height="40" viewBox="0 0 40 40" fill="none" xmlns="http://www.w3.org/2000/svg">
<mask id="mask0_146_1376" style="mask-type:alpha" maskUnits="userSpaceOnUse" x="0" y="0" width="40" height="40">
<rect width="40" height="40" fill="#D9D9D9"/>
</mask>
<g mask="url(#mask0_146_1376)">
<path d="M20 35.8334C17.8291 35.8334 15.7805 35.4172 13.8541 34.585C11.9277 33.7528 10.2477 32.6197 8.81413 31.1859C7.38024 29.7522 6.24718 28.0722 5.41496 26.1459C4.58274 24.2195 4.16663 22.1709 4.16663 20C4.16663 17.812 4.58274 15.759 5.41496 13.8413C6.24718 11.9235 7.38024 10.2478 8.81413 8.81419C10.2477 7.3803 11.9277 6.24724 13.8541 5.41502C15.7805 4.5828 17.8291 4.16669 20 4.16669C22.188 4.16669 24.2409 4.5828 26.1587 5.41502C28.0765 6.24724 29.7522 7.3803 31.1858 8.81419C32.6197 10.2478 33.7527 11.9235 34.585 13.8413C35.4172 15.759 35.8333 17.812 35.8333 20C35.8333 22.1709 35.4172 24.2195 34.585 26.1459C33.7527 28.0722 32.6197 29.7522 31.1858 31.1859C29.7522 32.6197 28.0765 33.7528 26.1587 34.585C24.2409 35.4172 22.188 35.8334 20 35.8334ZM20 33.2979C20.8505 32.1699 21.5663 31.0321 22.1475 29.8846C22.7286 28.7371 23.2019 27.4828 23.5675 26.1217H16.4325C16.8194 27.5256 17.2982 28.8013 17.8687 29.9488C18.439 31.0963 19.1494 32.2127 20 33.2979ZM16.7725 32.8396C16.1336 31.9229 15.5598 30.8809 15.0512 29.7134C14.5426 28.5456 14.1473 27.3484 13.8654 26.1217H8.21163C9.0919 27.8525 10.2725 29.3067 11.7533 30.4842C13.2341 31.6614 14.9072 32.4465 16.7725 32.8396ZM23.2275 32.8396C25.0927 32.4465 26.7658 31.6614 28.2466 30.4842C29.7275 29.3067 30.908 27.8525 31.7883 26.1217H26.1345C25.799 27.3589 25.3769 28.5614 24.8683 29.7292C24.36 30.897 23.813 31.9338 23.2275 32.8396ZM7.16329 23.6217H13.3591C13.2544 23.0022 13.1784 22.3949 13.1312 21.7996C13.0843 21.2046 13.0608 20.6047 13.0608 20C13.0608 19.3953 13.0843 18.7954 13.1312 18.2004C13.1784 17.6052 13.2544 16.9978 13.3591 16.3784H7.16329C7.00301 16.9445 6.88024 17.5331 6.79496 18.1442C6.7094 18.7553 6.66663 19.3739 6.66663 20C6.66663 20.6261 6.7094 21.2447 6.79496 21.8559C6.88024 22.467 7.00301 23.0556 7.16329 23.6217ZM15.8587 23.6217H24.1412C24.2457 23.0022 24.3215 22.4003 24.3687 21.8159C24.4157 21.2314 24.4391 20.6261 24.4391 20C24.4391 19.3739 24.4157 18.7686 24.3687 18.1842C24.3215 17.5997 24.2457 16.9978 24.1412 16.3784H15.8587C15.7543 16.9978 15.6784 17.5997 15.6312 18.1842C15.5843 18.7686 15.5608 19.3739 15.5608 20C15.5608 20.6261 15.5843 21.2314 15.6312 21.8159C15.6784 22.4003 15.7543 23.0022 15.8587 23.6217ZM26.6408 23.6217H32.8366C32.9969 23.0556 33.1197 22.467 33.205 21.8559C33.2905 21.2447 33.3333 20.6261 33.3333 20C33.3333 19.3739 33.2905 18.7553 33.205 18.1442C33.1197 17.5331 32.9969 16.9445 32.8366 16.3784H26.6408C26.7455 16.9978 26.8215 17.6052 26.8687 18.2004C26.9157 18.7954 26.9391 19.3953 26.9391 20C26.9391 20.6047 26.9157 21.2046 26.8687 21.7996C26.8215 22.3949 26.7455 23.0022 26.6408 23.6217ZM26.1345 13.8784H31.7883C30.8975 12.1261 29.725 10.672 28.2708 9.51585C26.8166 8.36002 25.1355 7.56947 23.2275 7.14419C23.8663 8.11419 24.4347 9.17516 24.9325 10.3271C25.4305 11.4788 25.8312 12.6625 26.1345 13.8784ZM16.4325 13.8784H23.5675C23.1805 12.485 22.6938 11.2013 22.1075 10.0271C21.5208 8.85294 20.8183 7.7446 20 6.7021C19.1816 7.7446 18.4791 8.85294 17.8925 10.0271C17.3061 11.2013 16.8194 12.485 16.4325 13.8784ZM8.21163 13.8784H13.8654C14.1687 12.6625 14.5694 11.4788 15.0675 10.3271C15.5652 9.17516 16.1336 8.11419 16.7725 7.14419C14.8536 7.56947 13.1698 8.3628 11.7212 9.52419C10.2723 10.6853 9.10246 12.1367 8.21163 13.8784Z" fill="#19111D"/>
</g>
</svg>
