<svg width="173" height="28" viewBox="0 0 173 28" fill="none" xmlns="http://www.w3.org/2000/svg">
<path d="M76.2794 3.3396L86.8116 21.658C86.8342 21.6971 86.8803 21.7164 86.924 21.7048C86.9677 21.6932 86.9981 21.6534 86.9982 21.6082V5.76831C86.9982 5.39403 86.99 5.09499 86.9738 4.8728C86.9656 4.76186 86.9552 4.66844 86.9425 4.59351C86.9306 4.52353 86.9152 4.46211 86.8937 4.41675H86.8947C86.8938 4.41484 86.8926 4.41278 86.8917 4.41089H86.8907C86.8445 4.30826 86.7551 4.23638 86.6407 4.18823C86.5254 4.13968 86.3778 4.11144 86.2023 4.10034H86.2032L84.5343 3.948V3.3396H90.382V3.948L88.713 4.10034C88.538 4.11149 88.3906 4.13976 88.2755 4.18823C88.1612 4.23639 88.0717 4.30823 88.0255 4.41089H88.0245C88.0016 4.4567 87.9861 4.52081 87.9738 4.59351C87.961 4.66843 87.9506 4.76189 87.9425 4.8728C87.9263 5.09499 87.9181 5.39404 87.9181 5.76831V24.9001H86.6368L75.0812 4.78979C75.0586 4.75079 75.0124 4.73152 74.9689 4.74292C74.9252 4.75457 74.8948 4.79446 74.8947 4.8396V22.4724C74.8947 22.836 74.9018 23.1293 74.9181 23.3513C74.9339 23.568 74.9588 23.7307 74.9982 23.823L75.0011 23.8289C75.0482 23.9228 75.1393 23.9888 75.2511 24.0359C75.3642 24.0835 75.5105 24.1175 75.6857 24.1394H75.6896L77.3585 24.2908V24.9001H71.5099V24.2908L73.1798 24.1394H73.1827C73.358 24.1175 73.5042 24.0835 73.6173 24.0359C73.7291 23.9888 73.8202 23.9229 73.8673 23.8289H73.8683L73.8976 23.741C73.9218 23.6461 73.9384 23.5139 73.9503 23.3513C73.9666 23.1293 73.9747 22.836 73.9747 22.4724V5.76831C73.9747 5.39405 73.9666 5.09498 73.9503 4.8728C73.9422 4.76191 73.9318 4.66843 73.9191 4.59351C73.9072 4.52344 73.8909 4.46212 73.8693 4.41675H73.8702C73.8249 4.31098 73.7337 4.23732 73.6173 4.18823C73.502 4.1397 73.3542 4.11146 73.1788 4.10034H73.1798L71.5099 3.948V3.3396H76.2794Z" fill="#19111D" stroke="white" stroke-width="0.2" stroke-linejoin="round"/>
<path d="M64.9817 9.51587V22.4719C64.9817 22.8463 64.9898 23.1452 65.0061 23.3674C65.0142 23.4784 65.0246 23.5718 65.0374 23.6467C65.0497 23.7193 65.0653 23.7826 65.0881 23.8284C65.1352 23.9226 65.2271 23.9892 65.3391 24.0364C65.4521 24.0839 65.5979 24.117 65.7727 24.1389L65.7766 24.1399L67.4456 24.2913V24.8997H60.7971V24.2913L62.467 24.1399L62.47 24.1389C62.6452 24.117 62.7914 24.084 62.9045 24.0364C63.0165 23.9892 63.1074 23.9226 63.1545 23.8284C63.1774 23.7826 63.194 23.7194 63.2063 23.6467C63.219 23.5718 63.2294 23.4784 63.2375 23.3674C63.2538 23.1452 63.262 22.8463 63.262 22.4719V11.9436C63.262 11.5697 63.2538 11.2711 63.2375 11.0491C63.2294 10.938 63.219 10.8438 63.2063 10.7688C63.1944 10.699 63.178 10.6383 63.1565 10.593H63.1575C63.1121 10.4872 63.0211 10.4126 62.9045 10.3635C62.7893 10.315 62.6414 10.2877 62.4661 10.2766H62.467L60.7971 10.1243V9.51587H64.9817ZM64.0891 2.4436C64.4916 2.4436 64.8177 2.57372 65.0745 2.83032L65.0774 2.83325C65.3314 3.06776 65.4612 3.38165 65.4612 3.78442C65.4611 4.1869 65.3312 4.51206 65.0745 4.7688C64.8176 5.02564 64.4918 5.15552 64.0891 5.15552C63.7095 5.15543 63.3938 5.0266 63.136 4.7688C62.8795 4.51211 62.7494 4.18675 62.7493 3.78442C62.7493 3.38167 62.879 3.06775 63.1331 2.83325L63.136 2.83032C63.3938 2.57257 63.7095 2.44369 64.0891 2.4436Z" fill="#19111D" stroke="white" stroke-width="0.2" stroke-linejoin="round"/>
<path d="M55.8121 3.3396V8.16382H55.1891L54.3444 5.00659C54.2581 4.64125 54.122 4.3769 53.9088 4.27026L53.9078 4.27124C53.8579 4.23892 53.7942 4.21263 53.7213 4.19312C53.6406 4.17152 53.5419 4.15402 53.4274 4.14038C53.1978 4.11308 52.8949 4.10035 52.5201 4.10034H48.6158C48.5606 4.10035 48.5163 4.14475 48.5162 4.19995V22.4724C48.5162 22.8463 48.5234 23.1449 48.5397 23.3669C48.5478 23.478 48.5582 23.5722 48.5709 23.6472C48.5833 23.7197 48.5998 23.7831 48.6227 23.8289C48.6698 23.9228 48.7609 23.9888 48.8727 24.0359C48.9858 24.0835 49.1321 24.1175 49.3073 24.1394H49.3112L50.9801 24.2908V24.9001H44.1715V24.2908L45.8405 24.1394H45.8444C46.0196 24.1175 46.1658 24.0835 46.2789 24.0359C46.3907 23.9888 46.4818 23.9229 46.5289 23.8289C46.5518 23.7831 46.5684 23.7197 46.5807 23.6472C46.5934 23.5722 46.6038 23.478 46.6119 23.3669C46.6282 23.1449 46.6363 22.8463 46.6364 22.4724V4.19995C46.6363 4.14474 46.591 4.10034 46.5358 4.10034H42.6315C42.2567 4.10035 41.9538 4.11307 41.7242 4.14038C41.6096 4.15403 41.5111 4.1715 41.4303 4.19312C41.3547 4.21336 41.2886 4.24003 41.2379 4.27417V4.27319C41.142 4.3281 41.0615 4.42252 40.9928 4.54272C40.9237 4.66372 40.8628 4.81825 40.8082 5.00366L40.8073 5.00659L39.9625 8.16382H39.3395V3.3396H55.8121Z" fill="#19111D" stroke="white" stroke-width="0.2" stroke-linejoin="round"/>
<path d="M7.67969 3.09961C9.24524 3.09961 10.516 3.41716 11.498 4.04395L11.5 4.0459C12.5079 4.65482 13.2181 5.4502 13.6357 6.43164C14.0463 7.39673 14.1528 8.43246 13.958 9.54297L12.082 10.0049C12.2894 8.07774 12.0303 6.57183 11.2822 5.50293H11.2812C10.533 4.40345 9.34681 3.86038 7.74414 3.86035C5.9507 3.86035 4.57519 4.43387 3.63477 5.59277C2.69536 6.75065 2.23634 8.64641 2.23633 11.2559V17.1123C2.23636 19.7011 2.70552 21.5965 3.66602 22.7754C4.62785 23.9558 6.03597 24.54 7.87207 24.54C8.58726 24.54 9.28117 24.421 9.95312 24.1826L9.95605 24.1816C10.6343 23.9191 11.2136 23.492 11.6934 22.9033C12.1607 22.3298 12.4463 21.5569 12.5635 20.5938L14.1445 20.9609C13.6758 22.5311 12.869 23.6362 11.7266 24.2891L11.7256 24.29C10.5692 24.9628 9.25357 25.2997 7.77637 25.2998C5.22054 25.2998 3.31127 24.4249 2.03223 22.6846C0.747496 20.915 0.0996094 18.5271 0.0996094 15.5117V12.8564C0.0996094 10.8824 0.396956 9.16735 0.988281 7.70996L0.989258 7.70898C1.58051 6.23098 2.43247 5.09471 3.54492 4.29688L3.5459 4.29785C4.67827 3.50106 6.05433 3.09966 7.67969 3.09961Z" fill="#19111D" stroke="white" stroke-width="0.2" stroke-linejoin="round"/>
<path d="M20.6057 2.08349L20.525 2.17736L20.5788 2.56409C20.6091 2.77811 20.6427 3.08599 20.6561 3.24744C20.683 3.58161 20.7402 3.68298 20.9015 3.68298C20.9688 3.68298 21.0226 3.64919 21.073 3.57785C21.1402 3.48774 21.1436 3.44644 21.1234 3.19488C21.0831 2.66922 21.0057 2.20364 20.9419 2.10602C20.8578 1.97461 20.7066 1.96335 20.6057 2.08349Z" fill="black"/>
<path d="M22.7573 2.41014C22.3875 3.28873 21.8227 5.0309 21.5471 6.14228C21.3386 6.97957 21.1033 8.11724 20.9823 8.87193L20.8579 9.6529L20.7537 9.66792C20.6999 9.67918 20.5318 9.70546 20.3839 9.73174C20.0646 9.78056 19.5334 9.95327 19.409 10.0434C19.288 10.1297 19.3015 10.3438 19.4292 10.4526C19.52 10.524 19.52 10.524 19.7317 10.4451C20.0477 10.3325 20.5016 10.2161 20.6461 10.2161C20.7907 10.2161 20.7873 10.1936 20.7335 10.7342C20.6797 11.3012 20.7066 11.2524 20.4243 11.3012C20.0982 11.3613 19.7721 11.4739 19.6914 11.5528C19.5637 11.6842 19.6578 11.9808 19.8292 11.9808C19.8662 11.9808 20.004 11.947 20.1385 11.9095C20.273 11.8682 20.4411 11.8269 20.5117 11.8118L20.6394 11.7893L20.6125 12.1948C20.5722 12.8256 20.5856 14.6353 20.636 15.3224C20.6629 15.6641 20.6831 16.0246 20.6865 16.1259V16.3099L20.3503 16.4639C19.214 16.9933 18.414 17.9244 18.0912 19.1034C18.0139 19.3925 18.0005 19.4976 18.0005 19.9782C17.9971 20.4401 18.0106 20.5677 18.0744 20.8193C18.3938 22.0508 19.3149 23.1171 20.8041 23.9732C21.1269 24.1572 21.4529 24.3637 21.5269 24.4275C22.327 25.1372 23.5204 25.7041 24.6701 25.9181C25.1138 26.0045 25.171 26.0045 27.3931 25.997C29.8673 25.9857 30.3245 25.9707 31.0573 25.8881C32.839 25.6853 33.8005 25.0508 34.066 23.9019C34.2644 23.042 34.2139 17.8606 33.9652 13.4301C33.9383 12.9533 33.9215 12.5628 33.9282 12.5515C33.9484 12.529 34.6173 12.6191 34.8661 12.6792C35.1653 12.7467 35.2393 12.7467 35.3031 12.6641C35.3704 12.5815 35.3771 12.3976 35.3199 12.3112C35.2493 12.2098 34.7619 12.0972 34.1434 12.0371L33.8845 12.0108L33.8643 11.7405C33.8509 11.5941 33.8408 11.365 33.8374 11.2299L33.8307 10.9858L34.2341 10.9595C34.6005 10.9332 35.4073 10.9708 35.6965 11.0271C35.9183 11.0684 36.0831 10.8093 35.9553 10.6141C35.9318 10.5803 35.8545 10.5352 35.7805 10.5165C35.5922 10.4677 34.5669 10.3926 34.4392 10.4188C34.382 10.4301 34.2072 10.4414 34.0492 10.4451L33.7635 10.4526L33.7399 10.3175C33.7097 10.1635 33.5551 8.62036 33.4273 7.23114C33.2054 4.81688 33.0138 3.68297 32.8222 3.68297C32.7214 3.68297 32.2474 3.90825 31.9482 4.09974C31.5985 4.32127 31.3128 4.54279 30.9497 4.8732C30.8085 5.00462 30.6674 5.10975 30.6371 5.10975C30.6102 5.10975 30.3345 5.06094 30.0286 4.99711C28.2167 4.6329 26.3341 4.42264 24.9424 4.43766L24.2869 4.44142L24.1961 4.13353C23.954 3.31877 23.5103 2.54531 23.0531 2.1398L22.922 2.02341L22.7573 2.41014ZM23.2145 3.08974C23.4767 3.50275 23.7759 4.27246 23.8666 4.76056L23.9103 4.99335L24.6835 4.98584L25.4567 4.97833L25.5139 5.24867C25.5441 5.3951 25.5811 5.63916 25.5946 5.7931C25.6214 6.10849 25.6752 6.1986 25.8332 6.1986C25.9139 6.1986 25.961 6.16856 26.0148 6.09723C26.0786 6.00711 26.0854 5.96206 26.0652 5.76681C26.0383 5.49648 25.9845 5.12477 25.9576 5.04967C25.9374 4.9896 26.1022 4.98209 26.4955 5.02339L26.7207 5.04592L26.7577 5.19986C26.7812 5.28622 26.8148 5.52276 26.8384 5.72551C26.8821 6.13102 26.9191 6.1986 27.0972 6.1986C27.2384 6.1986 27.3258 6.07845 27.3258 5.88696C27.3258 5.72927 27.272 5.30124 27.2351 5.16982C27.2183 5.10224 27.2317 5.09848 27.5141 5.12477C27.6754 5.13979 27.8334 5.16607 27.8671 5.18484C27.9242 5.22239 27.9746 5.46269 28.015 5.89072C28.0385 6.12726 28.1158 6.2737 28.22 6.2737C28.3243 6.2737 28.4285 6.19485 28.4587 6.09723C28.489 5.9996 28.4621 5.42514 28.4184 5.30499C28.4117 5.28246 28.4285 5.25993 28.4621 5.25993C28.5865 5.25993 29.0605 5.35005 29.0941 5.38008C29.1311 5.41012 29.1882 5.70674 29.2218 6.04091C29.2487 6.32251 29.4235 6.43139 29.6084 6.28496C29.6857 6.22488 29.6891 6.21362 29.6689 5.8344C29.6521 5.47771 29.6555 5.44391 29.7059 5.46269C29.7362 5.47395 29.8605 5.50023 29.9816 5.52276C30.2539 5.57533 30.6875 5.66919 30.7615 5.69548C30.7951 5.70674 30.8825 5.64291 30.9968 5.53027C31.4069 5.10599 31.8742 4.73428 32.3247 4.4677C32.5701 4.32502 32.5835 4.31751 32.6071 4.38885C32.6776 4.59911 32.9399 6.76556 32.9399 7.13727C32.9399 7.26868 32.9399 7.26868 32.5802 7.44891L32.2171 7.62913L31.4439 7.60285C30.6505 7.57657 28.963 7.63664 28.7243 7.70047C28.6503 7.71924 28.5528 7.7643 28.5058 7.80185C28.4352 7.86192 28.3142 8.07218 28.2604 8.22612C28.2537 8.2449 28.136 8.22237 27.9982 8.18107C27.6788 8.0872 27.1443 8.10222 26.835 8.21486L26.6266 8.28995L26.5896 8.15103C26.5426 7.97456 26.4417 7.82813 26.314 7.75303C26.2602 7.723 26.0551 7.6817 25.8635 7.66292C25.3323 7.61036 23.5641 7.58032 23.1069 7.61411C22.6598 7.6479 22.7371 7.67043 22.0412 7.31374L21.7824 7.18232L21.8832 6.75429C22.1488 5.62038 22.5858 4.1861 23.006 3.07096C23.0329 2.99587 23.0699 2.93204 23.0834 2.93204C23.1002 2.93204 23.1573 3.00338 23.2145 3.08974ZM22.1387 7.94452C22.3371 8.0459 22.3438 8.05341 22.327 8.16605C22.3034 8.3275 22.4682 9.38256 22.5858 9.84814C22.7741 10.5728 23.0666 11.0872 23.4263 11.3162C23.6918 11.4852 23.9608 11.5415 24.502 11.5415C25.2416 11.5415 25.5374 11.4289 25.9206 11.0008C26.2803 10.6028 26.4955 10.0321 26.5829 9.22862C26.6031 9.0484 26.6266 8.88319 26.6367 8.86442C26.6468 8.8494 26.7577 8.79308 26.8821 8.74427C27.067 8.67293 27.1779 8.65791 27.4939 8.65791C27.8435 8.65791 27.9007 8.66917 28.0755 8.75929C28.1797 8.81561 28.2671 8.87568 28.2671 8.8907C28.2671 9.04089 28.3511 9.6191 28.4083 9.8594C28.6033 10.6854 29.0806 11.305 29.6488 11.4702C30.0824 11.5941 30.8623 11.579 31.2288 11.4364C31.7565 11.2299 32.1162 10.6554 32.3348 9.67918C32.4625 9.10096 32.5802 8.2862 32.5533 8.15478C32.5365 8.06467 32.5499 8.0459 32.7583 7.93326C32.8827 7.86567 32.9903 7.82062 32.997 7.82813C33.0037 7.83564 33.0474 8.21861 33.0911 8.68044C33.1348 9.14226 33.1954 9.73174 33.2256 9.98706C33.2559 10.2424 33.2727 10.4752 33.2626 10.4977C33.2559 10.524 33.155 10.5578 33.0441 10.5728C32.7886 10.6066 32.6709 10.7004 32.6709 10.8694C32.6709 11.0722 32.7617 11.1322 33.0273 11.1022C33.1516 11.0872 33.2659 11.0722 33.2861 11.0684C33.3298 11.0609 33.3601 11.2449 33.3903 11.6842L33.4139 12.0071L33.0575 12.0258C32.6339 12.0521 32.5365 12.1009 32.5365 12.2999C32.5365 12.3901 32.56 12.4464 32.6205 12.4989C32.6945 12.5665 32.7415 12.5703 33.071 12.5515L33.4374 12.5327L33.4576 12.773C33.5147 13.4714 33.6256 16.0846 33.6828 18.0446C33.7265 19.6854 33.7063 23.2185 33.6492 23.5827C33.5349 24.3111 33.071 24.8218 32.281 25.0958C31.9482 25.2122 31.3935 25.3324 30.9397 25.385C30.5329 25.43 28.9731 25.4826 28.9731 25.4488C28.9731 25.4338 29.01 25.2798 29.0571 25.1071C29.2756 24.2548 29.4504 22.6666 29.5445 20.6916C29.595 19.5652 29.5916 19.355 29.5109 19.2648C29.4336 19.1785 29.2823 19.1672 29.1916 19.2423C29.1344 19.2874 29.1243 19.3662 29.1042 19.9257C29 22.5502 28.8151 24.2848 28.5461 25.1709L28.4554 25.4601L27.9343 25.4525L27.4099 25.4413L27.3393 25.216C27.1813 24.7279 27.1477 24.3186 27.1813 23.3762C27.1981 22.8956 27.2014 22.1484 27.188 21.6866C27.1611 20.8606 27.0737 19.6441 27.0266 19.4338C26.993 19.2836 26.8586 19.1973 26.7342 19.2461C26.5728 19.3137 26.5694 19.3437 26.64 20.2861C26.7174 21.36 26.7308 23.7367 26.6602 24.2586C26.5728 24.8818 26.4417 25.3286 26.3072 25.4525C26.2736 25.4863 26.1391 25.4976 25.8769 25.4901L25.4937 25.4788L25.4332 25.3437C25.2819 24.9945 25.1306 24.0258 25.0399 22.8318C25.0197 22.5727 24.9962 21.7354 24.9861 20.9732L24.9693 19.584L25.2046 19.4601C25.7727 19.1635 26.0383 18.5702 25.9475 17.7893C25.8366 16.798 25.2281 16.1935 24.0683 15.9345C23.6246 15.8331 22.5388 15.8443 21.9807 15.9532C21.7488 15.9983 21.4765 16.0621 21.3756 16.0922C21.2748 16.1222 21.1907 16.141 21.184 16.1372C21.1571 16.1072 21.1033 15.3337 21.0697 14.5152C21.0395 13.8056 21.0395 13.355 21.0697 12.6792C21.0899 12.1835 21.1134 11.7743 21.1201 11.763C21.1336 11.748 21.4933 11.7968 21.7857 11.8531C21.89 11.8719 21.9236 11.8606 21.9942 11.7818C22.1017 11.6616 22.1051 11.5528 22.0043 11.4401C21.9303 11.3575 21.7488 11.305 21.3521 11.2486L21.1739 11.2223L21.1773 11.0496C21.1773 10.952 21.1975 10.7305 21.2176 10.554C21.2647 10.1786 21.2781 10.1673 21.5807 10.3062C21.8059 10.4076 21.9135 10.3926 21.9774 10.2574C22.0816 10.0396 21.9572 9.87818 21.5941 9.75803L21.3353 9.67167L21.3588 9.48394C21.3823 9.27743 21.6345 7.82437 21.6614 7.74553C21.6748 7.70798 21.7051 7.71549 21.8026 7.76805C21.8732 7.8056 22.0244 7.88445 22.1387 7.94452ZM24.2398 8.39133C24.2465 8.60159 24.27 8.69921 24.3205 8.77806C24.4617 8.98832 24.744 9.00334 24.8987 8.8081C24.9626 8.72549 24.9726 8.66542 24.9726 8.42512V8.13977L25.5172 8.16605C25.8231 8.18107 26.082 8.2111 26.1055 8.23363C26.1997 8.31999 26.1324 9.33375 25.9946 9.84063C25.9139 10.1485 25.7929 10.3926 25.6181 10.5991C25.4197 10.8356 25.2113 10.952 24.8987 11.0083C24.5995 11.0609 24.0414 11.0309 23.8229 10.9445C23.3355 10.7605 23.0329 10.0772 22.8514 8.73676C22.8144 8.4514 22.7943 8.20359 22.8111 8.18858C22.848 8.14352 23.0565 8.1285 23.6817 8.12099L24.2263 8.11348L24.2398 8.39133ZM32.0692 8.17731C32.0894 8.19984 32.0759 8.39884 32.0322 8.733C31.8439 10.0922 31.5548 10.753 31.064 10.9483C30.8691 11.0271 30.2471 11.0571 29.9513 11.0046C29.3832 10.8994 29.0403 10.4789 28.852 9.66416C28.7445 9.19107 28.6974 8.30873 28.7781 8.23363C28.8117 8.20359 29.0302 8.18107 29.4403 8.16229L30.0488 8.13977V8.42137C30.0488 8.75178 30.1093 8.87568 30.311 8.93576C30.4085 8.96955 30.4556 8.96204 30.5531 8.90947C30.7144 8.82312 30.7884 8.64289 30.7884 8.34252V8.10222L31.4137 8.12099C31.7565 8.13226 32.0524 8.15854 32.0692 8.17731ZM23.8498 16.4263C24.6734 16.5652 25.2248 16.9445 25.413 17.4964C25.5206 17.8193 25.5172 18.2811 25.4029 18.559C25.218 19.002 24.8113 19.186 23.6952 19.3212C22.569 19.4563 22.0513 19.5389 21.695 19.6366C21.1067 19.8055 20.952 19.9219 20.784 20.3349C20.6999 20.5339 20.6865 20.6165 20.6764 21.0183C20.6663 21.2698 20.6797 21.6153 20.6999 21.7805C20.747 22.1409 20.905 22.8543 21.0193 23.2448C21.0663 23.3987 21.0966 23.5339 21.0865 23.5452C21.0563 23.5752 20.5957 23.2936 20.2226 23.0195C19.3552 22.3737 18.777 21.6078 18.5451 20.7892C18.4476 20.4513 18.4274 19.8356 18.498 19.4789C18.6963 18.4914 19.3149 17.6353 20.199 17.1247C20.7705 16.798 21.6647 16.5089 22.411 16.4113C22.7842 16.3662 23.5237 16.37 23.8498 16.4263ZM24.502 20.6466C24.502 22.4788 24.6331 24.0858 24.8583 25.0433C24.902 25.2385 24.9323 25.4037 24.9256 25.4112C24.9054 25.4338 24.5356 25.3549 24.1625 25.2498C23.7019 25.1221 23.2985 24.9607 22.8716 24.7279C22.5152 24.5364 21.8395 24.0671 21.7555 23.9544C21.6883 23.8606 21.3554 22.6966 21.258 22.2123C21.1941 21.9081 21.1605 21.6115 21.1504 21.2924C21.1302 20.7667 21.1638 20.5677 21.2949 20.395C21.4529 20.1847 22.0278 20.0421 23.3859 19.8844C23.8364 19.8318 24.26 19.7755 24.3272 19.7567C24.3944 19.7417 24.4617 19.7342 24.4785 19.7417C24.4919 19.7492 24.502 20.1585 24.502 20.6466Z" fill="black"/>
<path d="M26.9392 9.99079C26.8282 10.1297 26.919 10.5014 27.1274 10.7718C27.2417 10.9182 27.2485 10.9783 27.1577 11.0796C27.1039 11.1397 27.0468 11.1547 26.8719 11.1547C26.6131 11.1547 26.4685 11.2223 26.4383 11.3612C26.4181 11.4551 26.4618 11.6015 26.5324 11.6504C26.5526 11.6654 26.9257 11.6691 27.3594 11.6616C28.1292 11.6466 28.1494 11.6428 28.2099 11.5602C28.2805 11.4664 28.267 11.2749 28.183 11.2073C28.1561 11.1848 28.0317 11.1547 27.9073 11.1397C27.783 11.1247 27.6619 11.0947 27.6384 11.0721C27.5678 11.0083 27.588 10.8731 27.6821 10.7755C27.8031 10.6554 27.8973 10.4076 27.904 10.2048C27.9141 9.93447 27.8838 9.9157 27.4098 9.9157C27.0434 9.9157 26.993 9.92321 26.9392 9.99079Z" fill="black"/>
<path d="M30.4523 14.6316C30.3917 14.6616 30.1833 14.8756 30.1833 14.9094C30.1833 14.9244 30.0354 15.2286 29.8539 15.589L29.5244 16.2423L29.2118 16.2611C28.9529 16.2761 28.8924 16.2911 28.8521 16.3512C28.7849 16.4563 28.7949 16.6253 28.8723 16.7116C28.9361 16.783 28.9832 16.7867 30.6876 16.7867C32.392 16.7867 32.439 16.783 32.5029 16.7116C32.5937 16.6103 32.5903 16.4451 32.4928 16.3437C32.4222 16.2724 32.3785 16.2611 32.0928 16.2611H31.77L31.3666 15.5364C31.1448 15.1422 30.9229 14.7742 30.8758 14.7254C30.7918 14.6391 30.5598 14.5865 30.4523 14.6316ZM30.9162 15.7129C31.0674 15.9908 31.1918 16.2273 31.1918 16.2386C31.1918 16.2498 30.9431 16.2611 30.6371 16.2611C30.3312 16.2611 30.0825 16.2498 30.0825 16.2386C30.0825 16.216 30.459 15.4388 30.5397 15.2924C30.5666 15.2473 30.6002 15.2098 30.6136 15.2098C30.6271 15.2135 30.7615 15.4388 30.9162 15.7129Z" fill="black"/>
<path d="M19.6478 3.94955C19.5032 4.07345 19.5301 4.19736 19.7654 4.51275C19.8797 4.66294 20.0478 4.90324 20.1386 5.04216C20.3302 5.33502 20.4243 5.38383 20.5622 5.27119C20.7571 5.10974 20.6832 4.91825 20.1856 4.25368C19.8696 3.83691 19.8125 3.80312 19.6478 3.94955Z" fill="black"/>
<path d="M34.5098 4.92578C34.4426 4.97084 34.1837 5.52653 34.1837 5.6279C34.1837 5.79686 34.4358 5.92077 34.5602 5.81188C34.6544 5.73304 34.893 5.16608 34.8695 5.08723C34.809 4.90325 34.6544 4.83192 34.5098 4.92578Z" fill="black"/>
<path d="M35.4779 6.53652C35.0611 6.61537 34.6072 6.74302 34.5333 6.80685C34.4257 6.90447 34.4257 7.05842 34.5366 7.17481L34.6207 7.26492L35.0678 7.16355C35.3098 7.11098 35.5788 7.05466 35.6628 7.0434C35.9418 6.99459 36.0494 6.77682 35.8813 6.59284C35.7973 6.49522 35.7502 6.48771 35.4779 6.53652Z" fill="black"/>
<path d="M100.663 11.11C99.673 11.11 98.903 10.791 98.353 10.153C97.803 9.50767 97.528 8.62033 97.528 7.491C97.528 6.73567 97.6527 6.07567 97.902 5.511C98.1587 4.94633 98.518 4.51367 98.98 4.213C99.4493 3.905 99.992 3.751 100.608 3.751C100.945 3.751 101.268 3.795 101.576 3.883C101.891 3.971 102.159 4.07 102.379 4.18C102.599 4.29 102.709 4.34867 102.709 4.356L102.61 4.884C102.61 4.87667 102.504 4.82167 102.291 4.719C102.078 4.61633 101.829 4.521 101.543 4.433C101.264 4.345 100.982 4.301 100.696 4.301C99.9847 4.301 99.4273 4.57233 99.024 5.115C98.6207 5.65033 98.419 6.435 98.419 7.469C98.419 8.48833 98.6243 9.25833 99.035 9.779C99.4457 10.2997 100.021 10.56 100.762 10.56C101.151 10.56 101.492 10.4793 101.785 10.318C102.078 10.1567 102.309 9.98433 102.478 9.801C102.654 9.61767 102.742 9.51133 102.742 9.482L103.05 9.834C103.05 9.87067 102.955 9.999 102.764 10.219C102.573 10.4317 102.298 10.6333 101.939 10.824C101.587 11.0147 101.162 11.11 100.663 11.11ZM106.859 11.11C106.221 11.11 105.671 10.9633 105.209 10.67C104.755 10.3767 104.406 9.955 104.164 9.405C103.922 8.84767 103.801 8.19133 103.801 7.436C103.801 6.68067 103.922 6.028 104.164 5.478C104.406 4.92067 104.755 4.49533 105.209 4.202C105.671 3.90133 106.221 3.751 106.859 3.751C107.497 3.751 108.047 3.90133 108.509 4.202C108.971 4.49533 109.323 4.92067 109.565 5.478C109.815 6.028 109.939 6.68067 109.939 7.436C109.939 8.19133 109.815 8.84767 109.565 9.405C109.323 9.955 108.971 10.3767 108.509 10.67C108.047 10.9633 107.497 11.11 106.859 11.11ZM106.859 10.582C107.563 10.582 108.102 10.3143 108.476 9.779C108.858 9.24367 109.048 8.46267 109.048 7.436C109.048 6.41667 108.858 5.63567 108.476 5.093C108.102 4.55033 107.563 4.279 106.859 4.279C106.163 4.279 105.627 4.55033 105.253 5.093C104.879 5.63567 104.692 6.41667 104.692 7.436C104.692 8.46267 104.876 9.24367 105.242 9.779C105.616 10.3143 106.155 10.582 106.859 10.582ZM111.505 3.85H113.232C113.958 3.85 114.526 4.04067 114.937 4.422C115.347 4.796 115.553 5.335 115.553 6.039C115.553 6.60367 115.432 7.06567 115.19 7.425C114.948 7.78433 114.629 8.041 114.233 8.195L116.026 11H115.069L113.43 8.349H112.341V11H111.505V3.85ZM113.232 7.854C113.708 7.854 114.068 7.71833 114.31 7.447C114.552 7.17567 114.673 6.71733 114.673 6.072C114.673 4.91333 114.159 4.334 113.133 4.334H112.341V7.854H113.232ZM117.434 3.85H119.15C119.884 3.85 120.452 4.04067 120.855 4.422C121.266 4.80333 121.471 5.368 121.471 6.116C121.471 6.67333 121.361 7.13167 121.141 7.491C120.921 7.843 120.635 8.09967 120.283 8.261C119.939 8.415 119.568 8.492 119.172 8.492H118.27V11H117.434V3.85ZM119.051 8.03C120.078 8.03 120.591 7.403 120.591 6.149C120.591 5.533 120.459 5.07833 120.195 4.785C119.931 4.48433 119.554 4.334 119.062 4.334H118.27V8.03H119.051ZM125.267 11.11C124.468 11.11 123.856 10.89 123.43 10.45C123.012 10.01 122.803 9.416 122.803 8.668V3.85H123.628V8.481C123.628 9.14833 123.775 9.66167 124.068 10.021C124.362 10.373 124.791 10.549 125.355 10.549C125.942 10.549 126.382 10.3693 126.675 10.01C126.976 9.64333 127.126 9.13367 127.126 8.481V3.85H127.731V8.668C127.731 9.416 127.526 10.01 127.115 10.45C126.705 10.89 126.089 11.11 125.267 11.11ZM131.275 11.11C130.798 11.11 130.402 11.0403 130.087 10.901C129.771 10.7617 129.537 10.615 129.383 10.461C129.236 10.2997 129.163 10.2043 129.163 10.175L129.438 9.746C129.438 9.768 129.507 9.85233 129.647 9.999C129.786 10.1383 129.988 10.2703 130.252 10.395C130.523 10.5123 130.853 10.571 131.242 10.571C131.704 10.571 132.067 10.439 132.331 10.175C132.595 9.90367 132.727 9.57 132.727 9.174C132.727 8.90267 132.661 8.67533 132.529 8.492C132.397 8.30867 132.232 8.162 132.034 8.052C131.843 7.942 131.583 7.81733 131.253 7.678C130.871 7.524 130.563 7.37733 130.329 7.238C130.094 7.09867 129.896 6.908 129.735 6.666C129.573 6.41667 129.493 6.10133 129.493 5.72C129.493 5.11867 129.683 4.642 130.065 4.29C130.446 3.93067 130.956 3.751 131.594 3.751C131.909 3.751 132.191 3.79867 132.441 3.894C132.697 3.982 132.903 4.081 133.057 4.191C133.211 4.29367 133.288 4.35233 133.288 4.367L133.178 4.851C133.178 4.83633 133.104 4.77767 132.958 4.675C132.811 4.57233 132.624 4.477 132.397 4.389C132.169 4.301 131.916 4.257 131.638 4.257C131.227 4.257 130.904 4.37067 130.67 4.598C130.435 4.82533 130.318 5.13333 130.318 5.522C130.318 5.79333 130.38 6.02067 130.505 6.204C130.637 6.38 130.798 6.523 130.989 6.633C131.187 6.743 131.447 6.864 131.77 6.996C132.158 7.15733 132.47 7.31133 132.705 7.458C132.939 7.59733 133.137 7.79533 133.299 8.052C133.467 8.30867 133.552 8.63867 133.552 9.042C133.552 9.44533 133.456 9.80467 133.266 10.12C133.082 10.428 132.818 10.67 132.474 10.846C132.129 11.022 131.729 11.11 131.275 11.11ZM140.225 11.11C139.587 11.11 139.037 10.9633 138.575 10.67C138.12 10.3767 137.772 9.955 137.53 9.405C137.288 8.84767 137.167 8.19133 137.167 7.436C137.167 6.68067 137.288 6.028 137.53 5.478C137.772 4.92067 138.12 4.49533 138.575 4.202C139.037 3.90133 139.587 3.751 140.225 3.751C140.863 3.751 141.413 3.90133 141.875 4.202C142.337 4.49533 142.689 4.92067 142.931 5.478C143.18 6.028 143.305 6.68067 143.305 7.436C143.305 8.19133 143.18 8.84767 142.931 9.405C142.689 9.955 142.337 10.3767 141.875 10.67C141.413 10.9633 140.863 11.11 140.225 11.11ZM140.225 10.582C140.929 10.582 141.468 10.3143 141.842 9.779C142.223 9.24367 142.414 8.46267 142.414 7.436C142.414 6.41667 142.223 5.63567 141.842 5.093C141.468 4.55033 140.929 4.279 140.225 4.279C139.528 4.279 138.993 4.55033 138.619 5.093C138.245 5.63567 138.058 6.41667 138.058 7.436C138.058 8.46267 138.241 9.24367 138.608 9.779C138.982 10.3143 139.521 10.582 140.225 10.582ZM144.87 11V3.85H148.797V4.378H145.706V7.227H148.368V7.733H145.706V11H144.87ZM99.112 25V18.378H97.077V17.85H101.994V18.378H99.948V25H99.112ZM103.104 25V17.85H106.954V18.378H103.94V21.128H106.701V21.634H103.94V24.472H107.196V25H103.104ZM107.844 25L110.132 21.447L107.932 17.85H108.944L110.715 20.842L112.563 17.85H113.256L111.067 21.315L113.399 25H112.376L110.495 21.931H110.484L108.581 25H107.844ZM115.709 25V18.378H113.674V17.85H118.591V18.378H116.545V25H115.709ZM121.263 25.11C120.786 25.11 120.39 25.0403 120.075 24.901C119.76 24.7617 119.525 24.615 119.371 24.461C119.224 24.2997 119.151 24.2043 119.151 24.175L119.426 23.746C119.426 23.768 119.496 23.8523 119.635 23.999C119.774 24.1383 119.976 24.2703 120.24 24.395C120.511 24.5123 120.841 24.571 121.23 24.571C121.692 24.571 122.055 24.439 122.319 24.175C122.583 23.9037 122.715 23.57 122.715 23.174C122.715 22.9027 122.649 22.6753 122.517 22.492C122.385 22.3087 122.22 22.162 122.022 22.052C121.831 21.942 121.571 21.8173 121.241 21.678C120.86 21.524 120.552 21.3773 120.317 21.238C120.082 21.0987 119.884 20.908 119.723 20.666C119.562 20.4167 119.481 20.1013 119.481 19.72C119.481 19.1187 119.672 18.642 120.053 18.29C120.434 17.9307 120.944 17.751 121.582 17.751C121.897 17.751 122.18 17.7987 122.429 17.894C122.686 17.982 122.891 18.081 123.045 18.191C123.199 18.2937 123.276 18.3523 123.276 18.367L123.166 18.851C123.166 18.8363 123.093 18.7777 122.946 18.675C122.799 18.5723 122.612 18.477 122.385 18.389C122.158 18.301 121.905 18.257 121.626 18.257C121.215 18.257 120.893 18.3707 120.658 18.598C120.423 18.8253 120.306 19.1333 120.306 19.522C120.306 19.7933 120.368 20.0207 120.493 20.204C120.625 20.38 120.786 20.523 120.977 20.633C121.175 20.743 121.435 20.864 121.758 20.996C122.147 21.1573 122.458 21.3113 122.693 21.458C122.928 21.5973 123.126 21.7953 123.287 22.052C123.456 22.3087 123.54 22.6387 123.54 23.042C123.54 23.4453 123.445 23.8047 123.254 24.12C123.071 24.428 122.807 24.67 122.462 24.846C122.117 25.022 121.718 25.11 121.263 25.11ZM127.661 25V17.85H128.497V25H127.661ZM130.572 25V17.85H131.441L135.093 23.746L135.06 23.482V17.85H135.665V25H134.939L131.133 18.906H131.122L131.177 19.247V25H130.572ZM140.305 25V17.85H141.174L144.826 23.746L144.793 23.482V17.85H145.398V25H144.672L140.866 18.906H140.855L140.91 19.247V25H140.305ZM147.47 25V17.85H148.306V25H147.47ZM151.844 25L149.512 17.85H150.381L152.46 24.384L154.572 17.85H155.188L152.812 25H151.844ZM156.407 25V17.85H157.243V21.744L158.112 20.974L160.521 17.85H161.192L158.684 21.04L161.533 25H160.488L158.068 21.678L157.243 22.371V25H156.407ZM162.788 25V17.85H163.624V21.062H166.891V17.85H167.727V25H166.891V21.568H163.624V25H162.788Z" fill="#19111D"/>
</svg>
