<svg width="24" height="24" viewBox="0 0 24 24" fill="none" xmlns="http://www.w3.org/2000/svg">
<mask id="mask0_655_769" style="mask-type:alpha" maskUnits="userSpaceOnUse" x="0" y="0" width="24" height="24">
<rect width="24" height="24" fill="#D9D9D9"/>
</mask>
<g mask="url(#mask0_655_769)">
<path d="M10.9655 15.7693C10.9655 14.6373 11.0959 13.7706 11.3568 13.1693C11.6176 12.5679 12.1622 11.9013 12.9905 11.1693C13.6353 10.5949 14.1241 10.0741 14.4568 9.60675C14.7894 9.13942 14.9558 8.60959 14.9558 8.01725C14.9558 7.23142 14.6882 6.57825 14.153 6.05775C13.6177 5.53725 12.8808 5.277 11.9423 5.277C11.0859 5.277 10.4193 5.50642 9.94226 5.96525C9.46543 6.42425 9.10326 6.9365 8.85576 7.502L7.03076 6.7C7.41926 5.74234 8.02568 4.94392 8.85001 4.30475C9.67434 3.66575 10.7051 3.34625 11.9423 3.34625C13.5576 3.34625 14.8008 3.80167 15.672 4.7125C16.5432 5.62334 16.9788 6.70442 16.9788 7.95575C16.9788 8.73775 16.8093 9.42784 16.4703 10.026C16.1311 10.624 15.6167 11.2468 14.927 11.8943C14.059 12.6904 13.5215 13.3183 13.3145 13.7778C13.1073 14.2374 13.0038 14.9013 13.0038 15.7693H10.9655ZM11.9423 21.5C11.5333 21.5 11.181 21.3523 10.8855 21.0568C10.59 20.7613 10.4423 20.409 10.4423 20C10.4423 19.591 10.59 19.2388 10.8855 18.9433C11.181 18.6478 11.5333 18.5 11.9423 18.5C12.3513 18.5 12.7035 18.6478 12.999 18.9433C13.2945 19.2388 13.4423 19.591 13.4423 20C13.4423 20.409 13.2945 20.7613 12.999 21.0568C12.7035 21.3523 12.3513 21.5 11.9423 21.5Z" fill="#19111D"/>
</g>
</svg>
