<svg width="112" height="33" viewBox="0 0 112 33" fill="none" xmlns="http://www.w3.org/2000/svg">
<path d="M19.6054 10.3999V-9.82285e-05H20.8214V4.6719H25.5734V-9.82285e-05H26.7894V10.3999H25.5734V5.4079H20.8214V10.3999H19.6054ZM29.8086 10.3999V-9.82285e-05H31.0246V8.3679L30.9446 8.8959H30.9606L36.0166 0.175901L36.0966 -9.82285e-05H37.2326V10.3999H36.0326V2.1119L36.0966 1.5199H36.0806L31.0406 10.2239L30.9606 10.3999H29.8086ZM40.2461 -9.82285e-05H42.8701C43.9154 -9.82285e-05 44.7207 0.239902 45.2861 0.719902C45.8621 1.18924 46.1501 1.81323 46.1501 2.5919C46.1501 3.1679 46.0061 3.6479 45.7181 4.0319C45.4301 4.4159 45.0727 4.7199 44.6461 4.9439C45.2647 5.11457 45.7501 5.41324 46.1021 5.8399C46.4647 6.26657 46.6461 6.80524 46.6461 7.4559C46.6461 8.39457 46.3314 9.1199 45.7021 9.6319C45.0834 10.1439 44.1447 10.3999 42.8861 10.3999H40.2461V-9.82285e-05ZM43.3501 4.7039C43.5741 4.7039 43.8087 4.6399 44.0541 4.5119C44.3101 4.3839 44.5287 4.17057 44.7101 3.8719C44.8914 3.56257 44.9821 3.16257 44.9821 2.6719C44.9821 2.02124 44.7847 1.53057 44.3901 1.1999C43.9954 0.869235 43.4727 0.703902 42.8221 0.703902H41.4621V4.7039H43.3501ZM42.8381 9.6959C44.5767 9.6959 45.4461 8.93324 45.4461 7.4079C45.4461 6.72524 45.2594 6.21324 44.8861 5.8719C44.5127 5.53057 44.0221 5.3599 43.4141 5.3599H41.4621V9.6959H42.8381ZM56.0699 13.1039L55.8939 10.3999H48.9179V-9.82285e-05H50.1339V9.6319H54.6459V-9.82285e-05H55.8619V9.6319H57.0619L56.8539 13.1039H56.0699ZM62.8398 10.3999L62.8878 -9.82285e-05L62.9198 0.0479021L62.9038 -9.82285e-05H64.3918L68.0558 8.9119H68.0718L71.7358 -9.82285e-05H73.1438L73.1918 10.3999H72.0078L71.9598 1.4879H71.9438L68.3438 10.3999H67.3678L63.7518 1.4879L63.7198 10.3999H62.8398ZM76.1992 10.3999V-9.82285e-05H81.2072V0.767901H77.4152V10.3999H76.1992ZM83.8501 10.5439C83.5941 10.5439 83.3647 10.5172 83.1621 10.4639C82.9701 10.4212 82.8207 10.3786 82.7141 10.3359C82.6074 10.2826 82.5434 10.2452 82.5221 10.2239L82.6981 9.3759C82.7194 9.39724 82.7781 9.43457 82.8741 9.4879C82.9701 9.53057 83.1034 9.57324 83.2741 9.6159C83.4447 9.65857 83.6367 9.6799 83.8501 9.6799C84.2554 9.6799 84.6181 9.5679 84.9381 9.3439C85.2581 9.10924 85.5727 8.66657 85.8821 8.0159L81.7221 -9.82285e-05H83.1301L86.4901 6.7359L88.9381 -9.82285e-05H89.8981L86.9221 7.6159C86.4954 8.69324 86.0367 9.45057 85.5461 9.8879C85.0554 10.3252 84.4901 10.5439 83.8501 10.5439ZM0.65594 28.5119C0.46394 28.5119 0.309274 28.4959 0.19194 28.4639C0.0852738 28.4426 0.0212738 28.4266 -5.9545e-05 28.4159L0.0479404 27.5519C0.0692738 27.5626 0.117274 27.5786 0.19194 27.5999C0.266607 27.6106 0.35194 27.6159 0.44794 27.6159C1.95194 27.6159 2.70394 24.4106 2.70394 17.9999H7.77594V28.3999H6.57594V18.7679H3.53594C3.52527 21.9466 3.26927 24.3679 2.76794 26.0319C2.26661 27.6852 1.56261 28.5119 0.65594 28.5119ZM12.1369 28.5599C11.4329 28.5599 10.8676 28.3892 10.4409 28.0479C10.0143 27.6959 9.80094 27.2106 9.80094 26.5919C9.80094 25.0239 11.3103 24.0799 14.3289 23.7599V22.9119C14.3289 22.1546 14.2063 21.6372 13.9609 21.3599C13.7156 21.0826 13.2836 20.9439 12.6649 20.9439C12.3876 20.9439 12.1049 20.9972 11.8169 21.1039C11.5289 21.1999 11.2836 21.3066 11.0809 21.4239C10.8889 21.5306 10.7663 21.5999 10.7129 21.6319L10.5849 20.9759C10.6383 20.9332 10.7716 20.8532 10.9849 20.7359C11.2089 20.6186 11.4863 20.5066 11.8169 20.3999C12.1583 20.2932 12.4996 20.2399 12.8409 20.2399C13.7583 20.2399 14.4303 20.4319 14.8569 20.8159C15.2836 21.1999 15.4969 21.8772 15.4969 22.8479V26.7679C15.4969 27.1946 15.5343 27.4826 15.6089 27.6319C15.6943 27.7812 15.7956 27.8559 15.9129 27.8559C16.0089 27.8559 16.1263 27.8399 16.2649 27.8079C16.4036 27.7652 16.4943 27.7332 16.5369 27.7119L16.5849 28.2559C16.4996 28.2879 16.3183 28.3466 16.0409 28.4319C15.7636 28.5172 15.5289 28.5599 15.3369 28.5599C15.0596 28.5599 14.8463 28.4746 14.6969 28.3039C14.5476 28.1226 14.4569 27.8079 14.4249 27.3599H14.4089C14.4089 27.4026 14.3236 27.5252 14.1529 27.7279C13.9823 27.9306 13.7263 28.1226 13.3849 28.3039C13.0543 28.4746 12.6383 28.5599 12.1369 28.5599ZM12.4889 27.8559C12.8729 27.8559 13.2036 27.7706 13.4809 27.5999C13.7583 27.4292 13.9663 27.2426 14.1049 27.0399C14.2543 26.8372 14.3289 26.7199 14.3289 26.6879V24.3519C13.3583 24.4586 12.5583 24.6666 11.9289 24.9759C11.3103 25.2852 11.0009 25.7759 11.0009 26.4479C11.0009 26.9066 11.1343 27.2586 11.4009 27.5039C11.6676 27.7386 12.0303 27.8559 12.4889 27.8559ZM20.9939 28.5599C19.8526 28.5599 18.9993 28.1706 18.4339 27.3919C17.8686 26.6132 17.5859 25.5359 17.5859 24.1599C17.5859 22.6132 17.6713 21.3386 17.8419 20.3359C18.0233 19.3332 18.3913 18.5066 18.9459 17.8559C19.5113 17.2052 20.3433 16.7999 21.4419 16.6399L23.6019 16.3359L23.6499 17.4879L21.7619 17.7119C20.8979 17.8079 20.2153 18.0479 19.7139 18.4319C19.2233 18.8159 18.8713 19.3546 18.6579 20.0479C18.4446 20.7306 18.3273 21.6106 18.3059 22.6879H18.3859C18.4606 22.3359 18.6046 21.9732 18.8179 21.5999C19.0313 21.2266 19.3353 20.9066 19.7299 20.6399C20.1246 20.3732 20.6099 20.2399 21.1859 20.2399C22.2206 20.2399 23.0153 20.6026 23.5699 21.3279C24.1246 22.0426 24.4019 23.0559 24.4019 24.3679C24.4019 25.6799 24.1033 26.7092 23.5059 27.4559C22.9086 28.1919 22.0713 28.5599 20.9939 28.5599ZM20.9939 27.8559C21.7406 27.8559 22.2899 27.5679 22.6419 26.9919C22.9939 26.4052 23.1699 25.5306 23.1699 24.3679C23.1699 23.2052 22.9939 22.3412 22.6419 21.7759C22.2899 21.2106 21.7406 20.9279 20.9939 20.9279C20.2793 20.9279 19.7353 21.2319 19.3619 21.8399C18.9993 22.4372 18.8179 23.2159 18.8179 24.1759C18.8179 25.4239 18.9939 26.3519 19.3459 26.9599C19.6979 27.5572 20.2473 27.8559 20.9939 27.8559ZM28.9921 28.5599C27.8827 28.5599 27.0347 28.1972 26.4481 27.4719C25.8721 26.7466 25.5841 25.7226 25.5841 24.3999C25.5841 23.0772 25.8721 22.0532 26.4481 21.3279C27.0347 20.6026 27.8827 20.2399 28.9921 20.2399C30.1014 20.2399 30.9441 20.6026 31.5201 21.3279C32.1067 22.0532 32.4001 23.0772 32.4001 24.3999C32.4001 25.7119 32.1014 26.7359 31.5041 27.4719C30.9174 28.1972 30.0801 28.5599 28.9921 28.5599ZM28.9921 27.8559C29.7387 27.8559 30.2881 27.5732 30.6401 27.0079C30.9921 26.4319 31.1681 25.5626 31.1681 24.3999C31.1681 23.2479 30.9921 22.3839 30.6401 21.8079C30.2881 21.2319 29.7387 20.9439 28.9921 20.9439C28.2454 20.9439 27.6961 21.2319 27.3441 21.8079C26.9921 22.3732 26.8161 23.2372 26.8161 24.3999C26.8161 25.5626 26.9921 26.4319 27.3441 27.0079C27.6961 27.5732 28.2454 27.8559 28.9921 27.8559ZM34.2077 20.3999H35.1677L35.3117 21.3599C35.461 21.1252 35.717 20.8799 36.0797 20.6239C36.4424 20.3679 36.9437 20.2399 37.5837 20.2399C38.5224 20.2399 39.269 20.5866 39.8237 21.2799C40.389 21.9732 40.6717 22.9386 40.6717 24.1759C40.6717 25.5199 40.389 26.5866 39.8237 27.3759C39.2584 28.1652 38.4584 28.5599 37.4237 28.5599C36.9864 28.5599 36.613 28.5066 36.3037 28.3999C36.005 28.2826 35.7757 28.1599 35.6157 28.0319C35.4557 27.8932 35.3757 27.8132 35.3757 27.7919H35.3597V32.3999L34.2077 32.4319V20.3999ZM37.0397 27.7919C37.8717 27.7919 38.4797 27.4986 38.8637 26.9119C39.2477 26.3146 39.4397 25.4132 39.4397 24.2079C39.4397 23.0879 39.2477 22.2772 38.8637 21.7759C38.4797 21.2746 37.925 21.0239 37.1997 21.0239C36.8157 21.0239 36.485 21.1039 36.2077 21.2639C35.9304 21.4239 35.717 21.5999 35.5677 21.7919C35.429 21.9732 35.3597 22.0799 35.3597 22.1119V27.0879C35.477 27.2372 35.669 27.3919 35.9357 27.5519C36.213 27.7119 36.581 27.7919 37.0397 27.7919ZM44.1057 28.5599C43.4017 28.5599 42.8364 28.3892 42.4097 28.0479C41.983 27.6959 41.7697 27.2106 41.7697 26.5919C41.7697 25.0239 43.279 24.0799 46.2977 23.7599V22.9119C46.2977 22.1546 46.175 21.6372 45.9297 21.3599C45.6844 21.0826 45.2524 20.9439 44.6337 20.9439C44.3564 20.9439 44.0737 20.9972 43.7857 21.1039C43.4977 21.1999 43.2524 21.3066 43.0497 21.4239C42.8577 21.5306 42.735 21.5999 42.6817 21.6319L42.5537 20.9759C42.607 20.9332 42.7404 20.8532 42.9537 20.7359C43.1777 20.6186 43.455 20.5066 43.7857 20.3999C44.127 20.2932 44.4684 20.2399 44.8097 20.2399C45.727 20.2399 46.399 20.4319 46.8257 20.8159C47.2524 21.1999 47.4657 21.8772 47.4657 22.8479V26.7679C47.4657 27.1946 47.503 27.4826 47.5777 27.6319C47.663 27.7812 47.7644 27.8559 47.8817 27.8559C47.9777 27.8559 48.095 27.8399 48.2337 27.8079C48.3724 27.7652 48.463 27.7332 48.5057 27.7119L48.5537 28.2559C48.4684 28.2879 48.287 28.3466 48.0097 28.4319C47.7324 28.5172 47.4977 28.5599 47.3057 28.5599C47.0284 28.5599 46.815 28.4746 46.6657 28.3039C46.5164 28.1226 46.4257 27.8079 46.3937 27.3599H46.3777C46.3777 27.4026 46.2924 27.5252 46.1217 27.7279C45.951 27.9306 45.695 28.1226 45.3537 28.3039C45.023 28.4746 44.607 28.5599 44.1057 28.5599ZM44.4577 27.8559C44.8417 27.8559 45.1724 27.7706 45.4497 27.5999C45.727 27.4292 45.935 27.2426 46.0737 27.0399C46.223 26.8372 46.2977 26.7199 46.2977 26.6879V24.3519C45.327 24.4586 44.527 24.6666 43.8977 24.9759C43.279 25.2852 42.9697 25.7759 42.9697 26.4479C42.9697 26.9066 43.103 27.2586 43.3697 27.5039C43.6364 27.7386 43.999 27.8559 44.4577 27.8559ZM51.5867 28.3999V21.1519H49.1547V20.3999H55.1707L55.1547 21.1519H52.7387V28.3999H51.5867ZM59.4452 28.5599C58.3359 28.5599 57.4879 28.1972 56.9012 27.4719C56.3252 26.7466 56.0372 25.7226 56.0372 24.3999C56.0372 23.0772 56.3252 22.0532 56.9012 21.3279C57.4879 20.6026 58.3359 20.2399 59.4452 20.2399C60.5545 20.2399 61.3972 20.6026 61.9732 21.3279C62.5599 22.0532 62.8532 23.0772 62.8532 24.3999C62.8532 25.7119 62.5545 26.7359 61.9572 27.4719C61.3705 28.1972 60.5332 28.5599 59.4452 28.5599ZM59.4452 27.8559C60.1919 27.8559 60.7412 27.5732 61.0932 27.0079C61.4452 26.4319 61.6212 25.5626 61.6212 24.3999C61.6212 23.2479 61.4452 22.3839 61.0932 21.8079C60.7412 21.2319 60.1919 20.9439 59.4452 20.9439C58.6985 20.9439 58.1492 21.2319 57.7972 21.8079C57.4452 22.3732 57.2692 23.2372 57.2692 24.3999C57.2692 25.5626 57.4452 26.4319 57.7972 27.0079C58.1492 27.5732 58.6985 27.8559 59.4452 27.8559ZM64.6608 20.3999H65.6208L65.7648 21.3599C65.9141 21.1252 66.1701 20.8799 66.5328 20.6239C66.8955 20.3679 67.3968 20.2399 68.0368 20.2399C68.9755 20.2399 69.7221 20.5866 70.2768 21.2799C70.8421 21.9732 71.1248 22.9386 71.1248 24.1759C71.1248 25.5199 70.8421 26.5866 70.2768 27.3759C69.7115 28.1652 68.9115 28.5599 67.8768 28.5599C67.4395 28.5599 67.0661 28.5066 66.7568 28.3999C66.4581 28.2826 66.2288 28.1599 66.0688 28.0319C65.9088 27.8932 65.8288 27.8132 65.8288 27.7919H65.8128V32.3999L64.6608 32.4319V20.3999ZM67.4928 27.7919C68.3248 27.7919 68.9328 27.4986 69.3168 26.9119C69.7008 26.3146 69.8928 25.4132 69.8928 24.2079C69.8928 23.0879 69.7008 22.2772 69.3168 21.7759C68.9328 21.2746 68.3781 21.0239 67.6528 21.0239C67.2688 21.0239 66.9381 21.1039 66.6608 21.2639C66.3835 21.4239 66.1701 21.5999 66.0208 21.7919C65.8821 21.9732 65.8128 22.0799 65.8128 22.1119V27.0879C65.9301 27.2372 66.1221 27.3919 66.3888 27.5519C66.6661 27.7119 67.0341 27.7919 67.4928 27.7919ZM72.9108 28.3999V20.3999H74.0628V26.7839L77.9668 20.3999H79.0068V28.3999H77.8388V21.8399L73.8068 28.3999H72.9108ZM82.6268 24.8959C82.1148 24.7252 81.6935 24.4586 81.3628 24.0959C81.0321 23.7332 80.8668 23.2959 80.8668 22.7839C80.8668 21.9946 81.1228 21.4026 81.6348 21.0079C82.1468 20.6026 82.8935 20.3999 83.8748 20.3999H86.3708V28.3999H85.2188V25.1039H83.6188L82.0828 28.3999H80.8988L82.6268 24.8959ZM85.2188 24.4639V21.0399H83.9708C82.6588 21.0399 82.0028 21.6212 82.0028 22.7839C82.0028 23.3279 82.1788 23.7439 82.5308 24.0319C82.8935 24.3199 83.3628 24.4639 83.9388 24.4639H85.2188ZM96.3446 25.7759H91.8646L91.7846 25.1679C92.2219 24.3039 92.6806 23.1999 93.1606 21.8559C93.6512 20.5012 94.0619 19.1679 94.3926 17.8559L95.4966 17.9999C95.1766 19.2266 94.7606 20.4532 94.2486 21.6799C93.7472 22.9066 93.2246 24.0319 92.6806 25.0559H96.3446L96.6166 19.5199H97.5286V25.0559H98.6646V25.6959L97.5286 25.7759V28.3999H96.3446V25.7759ZM102.172 28.3999V18.9279L100.252 19.9999L99.9796 19.3759L102.364 17.9999H103.324V28.3999H102.172ZM108.142 28.5599C107.598 28.5599 107.128 28.4799 106.734 28.3199C106.35 28.1492 106.046 27.9679 105.822 27.7759C105.608 27.5839 105.502 27.4719 105.502 27.4399L105.918 26.8479C105.918 26.8692 106.008 26.9652 106.19 27.1359C106.382 27.2959 106.638 27.4452 106.958 27.5839C107.278 27.7226 107.651 27.7919 108.078 27.7919C108.856 27.7919 109.47 27.5626 109.918 27.1039C110.366 26.6346 110.59 25.9786 110.59 25.1359C110.59 24.3892 110.387 23.7972 109.982 23.3599C109.576 22.9226 109.038 22.7039 108.366 22.7039C108.035 22.7039 107.742 22.7572 107.486 22.8639C107.24 22.9599 107.075 23.0559 106.99 23.1519L106.974 23.1999L106.494 23.1359L106.974 17.9999H111.326L111.278 19.1199H107.582L107.31 22.2399C107.683 22.1012 108.067 22.0319 108.462 22.0319C109.464 22.0319 110.27 22.3092 110.878 22.8639C111.496 23.4186 111.806 24.1706 111.806 25.1199C111.806 25.8239 111.64 26.4372 111.31 26.9599C110.979 27.4826 110.536 27.8826 109.982 28.1599C109.427 28.4266 108.814 28.5599 108.142 28.5599Z" fill="#2D4F45"/>
</svg>
