<svg width="71" height="14" viewBox="0 0 71 14" fill="none" xmlns="http://www.w3.org/2000/svg">
<path d="M-2.82526e-05 10.3999V-9.82285e-05H1.21597V4.6719H5.96797V-9.82285e-05H7.18397V10.3999H5.96797V5.4079H1.21597V10.3999H-2.82526e-05ZM10.2031 10.3999V-9.82285e-05H11.4191V8.3679L11.3391 8.8959H11.3551L16.4111 0.175901L16.4911 -9.82285e-05H17.6271V10.3999H16.4271V2.1119L16.4911 1.5199H16.4751L11.4351 10.2239L11.3551 10.3999H10.2031ZM20.6406 -9.82285e-05H23.2646C24.3099 -9.82285e-05 25.1153 0.239902 25.6806 0.719902C26.2566 1.18924 26.5446 1.81323 26.5446 2.5919C26.5446 3.1679 26.4006 3.6479 26.1126 4.0319C25.8246 4.4159 25.4673 4.7199 25.0406 4.9439C25.6593 5.11457 26.1446 5.41324 26.4966 5.8399C26.8593 6.26657 27.0406 6.80524 27.0406 7.4559C27.0406 8.39457 26.7259 9.1199 26.0966 9.6319C25.4779 10.1439 24.5393 10.3999 23.2806 10.3999H20.6406V-9.82285e-05ZM23.7446 4.7039C23.9686 4.7039 24.2033 4.6399 24.4486 4.5119C24.7046 4.3839 24.9233 4.17057 25.1046 3.8719C25.2859 3.56257 25.3766 3.16257 25.3766 2.6719C25.3766 2.02124 25.1793 1.53057 24.7846 1.1999C24.3899 0.869235 23.8673 0.703902 23.2166 0.703902H21.8566V4.7039H23.7446ZM23.2326 9.6959C24.9713 9.6959 25.8406 8.93324 25.8406 7.4079C25.8406 6.72524 25.6539 6.21324 25.2806 5.8719C24.9073 5.53057 24.4166 5.3599 23.8086 5.3599H21.8566V9.6959H23.2326ZM36.4645 13.1039L36.2885 10.3999H29.3125V-9.82285e-05H30.5285V9.6319H35.0405V-9.82285e-05H36.2565V9.6319H37.4565L37.2485 13.1039H36.4645ZM43.2343 10.3999L43.2823 -9.82285e-05L43.3143 0.0479021L43.2983 -9.82285e-05H44.7863L48.4503 8.9119H48.4663L52.1303 -9.82285e-05H53.5383L53.5863 10.3999H52.4023L52.3543 1.4879H52.3383L48.7383 10.3999H47.7623L44.1463 1.4879L44.1143 10.3999H43.2343ZM56.5937 10.3999V-9.82285e-05H61.6017V0.767901H57.8097V10.3999H56.5937ZM64.2446 10.5439C63.9886 10.5439 63.7593 10.5172 63.5566 10.4639C63.3646 10.4212 63.2153 10.3786 63.1086 10.3359C63.0019 10.2826 62.9379 10.2452 62.9166 10.2239L63.0926 9.3759C63.1139 9.39724 63.1726 9.43457 63.2686 9.4879C63.3646 9.53057 63.4979 9.57324 63.6686 9.6159C63.8393 9.65857 64.0313 9.6799 64.2446 9.6799C64.6499 9.6799 65.0126 9.5679 65.3326 9.3439C65.6526 9.10924 65.9673 8.66657 66.2766 8.0159L62.1166 -9.82285e-05H63.5246L66.8846 6.7359L69.3326 -9.82285e-05H70.2926L67.3166 7.6159C66.8899 8.69324 66.4313 9.45057 65.9406 9.8879C65.4499 10.3252 64.8846 10.5439 64.2446 10.5439Z" fill="#2D4F45"/>
</svg>
