<svg width="514" height="17" viewBox="0 0 514 17" fill="none" xmlns="http://www.w3.org/2000/svg">
<path d="M-2.82526e-05 12.064V1.66396H1.21597V6.33596H5.96797V1.66396H7.18397V12.064H5.96797V7.07196H1.21597V12.064H-2.82526e-05ZM10.2031 12.064V1.66396H11.4191V10.032L11.3391 10.56H11.3551L16.4111 1.83996L16.4911 1.66396H17.6271V12.064H16.4271V3.77596L16.4911 3.18396H16.4751L11.4351 11.888L11.3551 12.064H10.2031ZM20.6406 1.66396H23.2646C24.3099 1.66396 25.1153 1.90396 25.6806 2.38396C26.2566 2.8533 26.5446 3.4773 26.5446 4.25596C26.5446 4.83196 26.4006 5.31196 26.1126 5.69596C25.8246 6.07996 25.4673 6.38396 25.0406 6.60796C25.6593 6.77863 26.1446 7.0773 26.4966 7.50396C26.8593 7.93063 27.0406 8.4693 27.0406 9.11996C27.0406 10.0586 26.7259 10.784 26.0966 11.296C25.4779 11.808 24.5393 12.064 23.2806 12.064H20.6406V1.66396ZM23.7446 6.36796C23.9686 6.36796 24.2033 6.30396 24.4486 6.17596C24.7046 6.04796 24.9233 5.83463 25.1046 5.53596C25.2859 5.22663 25.3766 4.82663 25.3766 4.33596C25.3766 3.6853 25.1793 3.19463 24.7846 2.86396C24.3899 2.5333 23.8673 2.36796 23.2166 2.36796H21.8566V6.36796H23.7446ZM23.2326 11.36C24.9713 11.36 25.8406 10.5973 25.8406 9.07196C25.8406 8.3893 25.6539 7.8773 25.2806 7.53596C24.9073 7.19463 24.4166 7.02396 23.8086 7.02396H21.8566V11.36H23.2326ZM36.4645 14.768L36.2885 12.064H29.3125V1.66396H30.5285V11.296H35.0405V1.66396H36.2565V11.296H37.4565L37.2485 14.768H36.4645ZM43.2343 12.064L43.2823 1.66396L43.3143 1.71196L43.2983 1.66396H44.7863L48.4503 10.576H48.4663L52.1303 1.66396H53.5383L53.5863 12.064H52.4023L52.3543 3.15196H52.3383L48.7383 12.064H47.7623L44.1463 3.15196L44.1143 12.064H43.2343ZM56.5937 12.064V1.66396H61.6017V2.43196H57.8097V12.064H56.5937ZM64.2446 12.208C63.9886 12.208 63.7593 12.1813 63.5566 12.128C63.3646 12.0853 63.2153 12.0426 63.1086 12C63.0019 11.9466 62.9379 11.9093 62.9166 11.888L63.0926 11.04C63.1139 11.0613 63.1726 11.0986 63.2686 11.152C63.3646 11.1946 63.4979 11.2373 63.6686 11.28C63.8393 11.3226 64.0313 11.344 64.2446 11.344C64.6499 11.344 65.0126 11.232 65.3326 11.008C65.6526 10.7733 65.9673 10.3306 66.2766 9.67996L62.1166 1.66396H63.5246L66.8846 8.39996L69.3326 1.66396H70.2926L67.3166 9.27996C66.8899 10.3573 66.4313 11.1146 65.9406 11.552C65.4499 11.9893 64.8846 12.208 64.2446 12.208ZM76.8003 8.17596C76.4483 8.17596 76.1603 8.0693 75.9363 7.85596C75.691 7.6213 75.5683 7.31196 75.5683 6.92796C75.5683 6.5333 75.691 6.21863 75.9363 5.98396C76.1817 5.77063 76.4697 5.66396 76.8003 5.66396C77.131 5.66396 77.419 5.77063 77.6643 5.98396C77.9097 6.2293 78.0323 6.54396 78.0323 6.92796C78.0323 7.3013 77.9097 7.61063 77.6643 7.85596C77.4403 8.0693 77.1523 8.17596 76.8003 8.17596ZM84.0036 12.176C83.8116 12.176 83.6569 12.16 83.5396 12.128C83.4329 12.1066 83.3689 12.0906 83.3476 12.08L83.3956 11.216C83.4169 11.2266 83.4649 11.2426 83.5396 11.264C83.6143 11.2746 83.6996 11.28 83.7956 11.28C85.2996 11.28 86.0516 8.07463 86.0516 1.66396H91.1236V12.064H89.9236V2.43196H86.8836C86.8729 5.61063 86.6169 8.03196 86.1156 9.69596C85.6143 11.3493 84.9103 12.176 84.0036 12.176ZM95.4846 12.224C94.7806 12.224 94.2153 12.0533 93.7886 11.712C93.3619 11.36 93.1486 10.8746 93.1486 10.256C93.1486 8.68796 94.6579 7.74396 97.6766 7.42396V6.57596C97.6766 5.81863 97.5539 5.3013 97.3086 5.02396C97.0633 4.74663 96.6313 4.60796 96.0126 4.60796C95.7353 4.60796 95.4526 4.6613 95.1646 4.76796C94.8766 4.86396 94.6313 4.97063 94.4286 5.08796C94.2366 5.19463 94.1139 5.26396 94.0606 5.29596L93.9326 4.63996C93.9859 4.5973 94.1193 4.5173 94.3326 4.39996C94.5566 4.28263 94.8339 4.17063 95.1646 4.06396C95.5059 3.9573 95.8473 3.90396 96.1886 3.90396C97.1059 3.90396 97.7779 4.09596 98.2046 4.47996C98.6313 4.86396 98.8446 5.5413 98.8446 6.51196V10.432C98.8446 10.8586 98.8819 11.1466 98.9566 11.296C99.0419 11.4453 99.1433 11.52 99.2606 11.52C99.3566 11.52 99.4739 11.504 99.6126 11.472C99.7513 11.4293 99.8419 11.3973 99.8846 11.376L99.9326 11.92C99.8473 11.952 99.6659 12.0106 99.3886 12.096C99.1113 12.1813 98.8766 12.224 98.6846 12.224C98.4073 12.224 98.1939 12.1386 98.0446 11.968C97.8953 11.7866 97.8046 11.472 97.7726 11.024H97.7566C97.7566 11.0666 97.6713 11.1893 97.5006 11.392C97.3299 11.5946 97.0739 11.7866 96.7326 11.968C96.4019 12.1386 95.9859 12.224 95.4846 12.224ZM95.8366 11.52C96.2206 11.52 96.5513 11.4346 96.8286 11.264C97.1059 11.0933 97.3139 10.9066 97.4526 10.704C97.6019 10.5013 97.6766 10.384 97.6766 10.352V8.01596C96.7059 8.12263 95.9059 8.33063 95.2766 8.63996C94.6579 8.9493 94.3486 9.43996 94.3486 10.112C94.3486 10.5706 94.4819 10.9226 94.7486 11.168C95.0153 11.4026 95.3779 11.52 95.8366 11.52ZM104.342 12.224C103.2 12.224 102.347 11.8346 101.782 11.056C101.216 10.2773 100.934 9.19996 100.934 7.82396C100.934 6.2773 101.019 5.00263 101.19 3.99996C101.371 2.9973 101.739 2.17063 102.294 1.51996C102.859 0.869298 103.691 0.463964 104.79 0.303965L106.95 -3.52859e-05L106.998 1.15196L105.11 1.37596C104.246 1.47196 103.563 1.71196 103.062 2.09596C102.571 2.47996 102.219 3.01863 102.006 3.71196C101.792 4.39463 101.675 5.27463 101.654 6.35196H101.734C101.808 5.99996 101.952 5.6373 102.166 5.26396C102.379 4.89063 102.683 4.57063 103.078 4.30396C103.472 4.0373 103.958 3.90396 104.534 3.90396C105.568 3.90396 106.363 4.26663 106.918 4.99196C107.472 5.70663 107.75 6.71996 107.75 8.03196C107.75 9.34396 107.451 10.3733 106.854 11.12C106.256 11.856 105.419 12.224 104.342 12.224ZM104.342 11.52C105.088 11.52 105.638 11.232 105.99 10.656C106.342 10.0693 106.518 9.19463 106.518 8.03196C106.518 6.8693 106.342 6.0053 105.99 5.43996C105.638 4.87463 105.088 4.59196 104.342 4.59196C103.627 4.59196 103.083 4.89596 102.71 5.50396C102.347 6.1013 102.166 6.87996 102.166 7.83996C102.166 9.08796 102.342 10.016 102.694 10.624C103.046 11.2213 103.595 11.52 104.342 11.52ZM112.34 12.224C111.23 12.224 110.382 11.8613 109.796 11.136C109.22 10.4106 108.932 9.38663 108.932 8.06396C108.932 6.7413 109.22 5.7173 109.796 4.99196C110.382 4.26663 111.23 3.90396 112.34 3.90396C113.449 3.90396 114.292 4.26663 114.868 4.99196C115.454 5.7173 115.748 6.7413 115.748 8.06396C115.748 9.37596 115.449 10.4 114.852 11.136C114.265 11.8613 113.428 12.224 112.34 12.224ZM112.34 11.52C113.086 11.52 113.636 11.2373 113.988 10.672C114.34 10.096 114.516 9.22663 114.516 8.06396C114.516 6.91196 114.34 6.04796 113.988 5.47196C113.636 4.89596 113.086 4.60796 112.34 4.60796C111.593 4.60796 111.044 4.89596 110.692 5.47196C110.34 6.0373 110.164 6.9013 110.164 8.06396C110.164 9.22663 110.34 10.096 110.692 10.672C111.044 11.2373 111.593 11.52 112.34 11.52ZM117.555 4.06396H118.515L118.659 5.02396C118.809 4.7893 119.065 4.54396 119.427 4.28796C119.79 4.03196 120.291 3.90396 120.931 3.90396C121.87 3.90396 122.617 4.25063 123.171 4.94396C123.737 5.6373 124.019 6.60263 124.019 7.83996C124.019 9.18396 123.737 10.2506 123.171 11.04C122.606 11.8293 121.806 12.224 120.771 12.224C120.334 12.224 119.961 12.1706 119.651 12.064C119.353 11.9466 119.123 11.824 118.963 11.696C118.803 11.5573 118.723 11.4773 118.723 11.456H118.707V16.064L117.555 16.096V4.06396ZM120.387 11.456C121.219 11.456 121.827 11.1626 122.211 10.576C122.595 9.97863 122.787 9.0773 122.787 7.87196C122.787 6.75196 122.595 5.9413 122.211 5.43996C121.827 4.93863 121.273 4.68796 120.547 4.68796C120.163 4.68796 119.833 4.76796 119.555 4.92796C119.278 5.08796 119.065 5.26396 118.915 5.45596C118.777 5.6373 118.707 5.74396 118.707 5.77596V10.752C118.825 10.9013 119.017 11.056 119.283 11.216C119.561 11.376 119.929 11.456 120.387 11.456ZM127.453 12.224C126.749 12.224 126.184 12.0533 125.757 11.712C125.331 11.36 125.117 10.8746 125.117 10.256C125.117 8.68796 126.627 7.74396 129.645 7.42396V6.57596C129.645 5.81863 129.523 5.3013 129.277 5.02396C129.032 4.74663 128.6 4.60796 127.981 4.60796C127.704 4.60796 127.421 4.6613 127.133 4.76796C126.845 4.86396 126.6 4.97063 126.397 5.08796C126.205 5.19463 126.083 5.26396 126.029 5.29596L125.901 4.63996C125.955 4.5973 126.088 4.5173 126.301 4.39996C126.525 4.28263 126.803 4.17063 127.133 4.06396C127.475 3.9573 127.816 3.90396 128.157 3.90396C129.075 3.90396 129.747 4.09596 130.173 4.47996C130.6 4.86396 130.813 5.5413 130.813 6.51196V10.432C130.813 10.8586 130.851 11.1466 130.925 11.296C131.011 11.4453 131.112 11.52 131.229 11.52C131.325 11.52 131.443 11.504 131.581 11.472C131.72 11.4293 131.811 11.3973 131.853 11.376L131.901 11.92C131.816 11.952 131.635 12.0106 131.357 12.096C131.08 12.1813 130.845 12.224 130.653 12.224C130.376 12.224 130.163 12.1386 130.013 11.968C129.864 11.7866 129.773 11.472 129.741 11.024H129.725C129.725 11.0666 129.64 11.1893 129.469 11.392C129.299 11.5946 129.043 11.7866 128.701 11.968C128.371 12.1386 127.955 12.224 127.453 12.224ZM127.805 11.52C128.189 11.52 128.52 11.4346 128.797 11.264C129.075 11.0933 129.283 10.9066 129.421 10.704C129.571 10.5013 129.645 10.384 129.645 10.352V8.01596C128.675 8.12263 127.875 8.33063 127.245 8.63996C126.627 8.9493 126.317 9.43996 126.317 10.112C126.317 10.5706 126.451 10.9226 126.717 11.168C126.984 11.4026 127.347 11.52 127.805 11.52ZM134.934 12.064V4.81596H132.502V4.06396H138.518L138.502 4.81596H136.086V12.064H134.934ZM142.793 12.224C141.684 12.224 140.836 11.8613 140.249 11.136C139.673 10.4106 139.385 9.38663 139.385 8.06396C139.385 6.7413 139.673 5.7173 140.249 4.99196C140.836 4.26663 141.684 3.90396 142.793 3.90396C143.902 3.90396 144.745 4.26663 145.321 4.99196C145.908 5.7173 146.201 6.7413 146.201 8.06396C146.201 9.37596 145.902 10.4 145.305 11.136C144.718 11.8613 143.881 12.224 142.793 12.224ZM142.793 11.52C143.54 11.52 144.089 11.2373 144.441 10.672C144.793 10.096 144.969 9.22663 144.969 8.06396C144.969 6.91196 144.793 6.04796 144.441 5.47196C144.089 4.89596 143.54 4.60796 142.793 4.60796C142.046 4.60796 141.497 4.89596 141.145 5.47196C140.793 6.0373 140.617 6.9013 140.617 8.06396C140.617 9.22663 140.793 10.096 141.145 10.672C141.497 11.2373 142.046 11.52 142.793 11.52ZM148.008 4.06396H148.968L149.112 5.02396C149.262 4.7893 149.518 4.54396 149.88 4.28796C150.243 4.03196 150.744 3.90396 151.384 3.90396C152.323 3.90396 153.07 4.25063 153.624 4.94396C154.19 5.6373 154.472 6.60263 154.472 7.83996C154.472 9.18396 154.19 10.2506 153.624 11.04C153.059 11.8293 152.259 12.224 151.224 12.224C150.787 12.224 150.414 12.1706 150.104 12.064C149.806 11.9466 149.576 11.824 149.416 11.696C149.256 11.5573 149.176 11.4773 149.176 11.456H149.16V16.064L148.008 16.096V4.06396ZM150.84 11.456C151.672 11.456 152.28 11.1626 152.664 10.576C153.048 9.97863 153.24 9.0773 153.24 7.87196C153.24 6.75196 153.048 5.9413 152.664 5.43996C152.28 4.93863 151.726 4.68796 151 4.68796C150.616 4.68796 150.286 4.76796 150.008 4.92796C149.731 5.08796 149.518 5.26396 149.368 5.45596C149.23 5.6373 149.16 5.74396 149.16 5.77596V10.752C149.278 10.9013 149.47 11.056 149.736 11.216C150.014 11.376 150.382 11.456 150.84 11.456ZM156.258 12.064V4.06396H157.41V10.448L161.314 4.06396H162.354V12.064H161.186V5.50396L157.154 12.064H156.258ZM165.974 8.55996C165.462 8.3893 165.041 8.12263 164.71 7.75996C164.38 7.3973 164.214 6.95996 164.214 6.44796C164.214 5.65863 164.47 5.06663 164.982 4.67196C165.494 4.26663 166.241 4.06396 167.222 4.06396H169.718V12.064H168.566V8.76796H166.966L165.43 12.064H164.246L165.974 8.55996ZM168.566 8.12796V4.70396H167.318C166.006 4.70396 165.35 5.2853 165.35 6.44796C165.35 6.99196 165.526 7.40796 165.878 7.69596C166.241 7.98396 166.71 8.12796 167.286 8.12796H168.566ZM175.02 12.064L178.524 1.66396H179.948L183.388 12.064H182.124L181.036 8.86396H176.956L175.868 12.064H175.02ZM177.18 8.20796H180.828L179.02 2.59196L177.18 8.20796ZM184.946 4.06396H187.634C188.562 4.06396 189.239 4.25063 189.666 4.62396C190.093 4.9973 190.306 5.50396 190.306 6.14396C190.306 6.6133 190.173 6.98663 189.906 7.26396C189.65 7.5413 189.33 7.75463 188.946 7.90396C189.426 8.0213 189.821 8.23996 190.13 8.55996C190.45 8.87996 190.61 9.27463 190.61 9.74396C190.61 10.4586 190.381 11.024 189.922 11.44C189.474 11.856 188.695 12.064 187.586 12.064H184.946V4.06396ZM187.81 7.69596C187.81 7.7173 187.933 7.69063 188.178 7.61596C188.434 7.5413 188.658 7.3973 188.85 7.18396C189.053 6.95996 189.154 6.63996 189.154 6.22396C189.154 5.21063 188.642 4.70396 187.618 4.70396H186.098V7.69596H187.81ZM187.57 11.424C188.263 11.424 188.743 11.264 189.01 10.944C189.287 10.624 189.426 10.2026 189.426 9.67996C189.426 9.24263 189.282 8.89063 188.994 8.62396C188.706 8.34663 188.279 8.20796 187.714 8.20796H186.098V11.424H187.57ZM193.903 12.064V4.81596H191.471V4.06396H197.487L197.471 4.81596H195.055V12.064H193.903ZM201.762 12.224C200.652 12.224 199.804 11.8613 199.218 11.136C198.642 10.4106 198.354 9.38663 198.354 8.06396C198.354 6.7413 198.642 5.7173 199.218 4.99196C199.804 4.26663 200.652 3.90396 201.762 3.90396C202.871 3.90396 203.714 4.26663 204.29 4.99196C204.876 5.7173 205.17 6.7413 205.17 8.06396C205.17 9.37596 204.871 10.4 204.274 11.136C203.687 11.8613 202.85 12.224 201.762 12.224ZM201.762 11.52C202.508 11.52 203.058 11.2373 203.41 10.672C203.762 10.096 203.938 9.22663 203.938 8.06396C203.938 6.91196 203.762 6.04796 203.41 5.47196C203.058 4.89596 202.508 4.60796 201.762 4.60796C201.015 4.60796 200.466 4.89596 200.114 5.47196C199.762 6.0373 199.586 6.9013 199.586 8.06396C199.586 9.22663 199.762 10.096 200.114 10.672C200.466 11.2373 201.015 11.52 201.762 11.52ZM206.929 12.064L207.153 4.06396H208.577L210.961 10.88L213.473 4.06396H214.881L214.993 12.064H213.921L213.857 5.71196L213.841 5.24796L211.249 12.064H210.353L207.825 5.24796L207.809 5.42396L207.681 12.064H206.929ZM219 12.224C218.296 12.224 217.731 12.0533 217.304 11.712C216.878 11.36 216.664 10.8746 216.664 10.256C216.664 8.68796 218.174 7.74396 221.192 7.42396V6.57596C221.192 5.81863 221.07 5.3013 220.824 5.02396C220.579 4.74663 220.147 4.60796 219.528 4.60796C219.251 4.60796 218.968 4.6613 218.68 4.76796C218.392 4.86396 218.147 4.97063 217.944 5.08796C217.752 5.19463 217.63 5.26396 217.576 5.29596L217.448 4.63996C217.502 4.5973 217.635 4.5173 217.848 4.39996C218.072 4.28263 218.35 4.17063 218.68 4.06396C219.022 3.9573 219.363 3.90396 219.704 3.90396C220.622 3.90396 221.294 4.09596 221.72 4.47996C222.147 4.86396 222.36 5.5413 222.36 6.51196V10.432C222.36 10.8586 222.398 11.1466 222.472 11.296C222.558 11.4453 222.659 11.52 222.776 11.52C222.872 11.52 222.99 11.504 223.128 11.472C223.267 11.4293 223.358 11.3973 223.4 11.376L223.448 11.92C223.363 11.952 223.182 12.0106 222.904 12.096C222.627 12.1813 222.392 12.224 222.2 12.224C221.923 12.224 221.71 12.1386 221.56 11.968C221.411 11.7866 221.32 11.472 221.288 11.024H221.272C221.272 11.0666 221.187 11.1893 221.016 11.392C220.846 11.5946 220.59 11.7866 220.248 11.968C219.918 12.1386 219.502 12.224 219 12.224ZM219.352 11.52C219.736 11.52 220.067 11.4346 220.344 11.264C220.622 11.0933 220.83 10.9066 220.968 10.704C221.118 10.5013 221.192 10.384 221.192 10.352V8.01596C220.222 8.12263 219.422 8.33063 218.792 8.63996C218.174 8.9493 217.864 9.43996 217.864 10.112C217.864 10.5706 217.998 10.9226 218.264 11.168C218.531 11.4026 218.894 11.52 219.352 11.52ZM226.481 12.064V4.81596H224.049V4.06396H230.065L230.049 4.81596H227.633V12.064H226.481ZM231.54 12.064V4.06396H232.692V10.448L236.596 4.06396H237.636V12.064H236.468V5.50396L232.436 12.064H231.54ZM241.768 12.224C241.085 12.224 240.541 12.1333 240.136 11.952C239.73 11.76 239.442 11.5626 239.272 11.36C239.101 11.1466 239.016 11.0133 239.016 10.96L239.416 10.448C239.416 10.4906 239.49 10.6026 239.64 10.784C239.8 10.9546 240.04 11.12 240.36 11.28C240.68 11.44 241.096 11.52 241.608 11.52C242.258 11.52 242.77 11.3493 243.144 11.008C243.517 10.6666 243.704 10.24 243.704 9.72796C243.704 9.25863 243.554 8.89596 243.256 8.63996C242.957 8.3733 242.578 8.23996 242.12 8.23996L240.728 8.27196V7.58396L242.184 7.61596H242.232C242.488 7.58396 242.749 7.45596 243.016 7.23196C243.293 7.00796 243.432 6.6293 243.432 6.09596C243.432 5.6373 243.282 5.27463 242.984 5.00796C242.685 4.73063 242.242 4.59196 241.656 4.59196C241.325 4.59196 241.01 4.6453 240.712 4.75196C240.424 4.85863 240.178 4.9813 239.976 5.11996C239.773 5.24796 239.672 5.3173 239.672 5.32796L239.528 4.65596C239.528 4.6453 239.645 4.57596 239.88 4.44796C240.125 4.3093 240.413 4.18663 240.744 4.07996C241.085 3.96263 241.437 3.90396 241.8 3.90396C242.728 3.90396 243.421 4.09063 243.88 4.46396C244.349 4.8373 244.584 5.34396 244.584 5.98396C244.584 6.85863 244.162 7.4773 243.32 7.83996C243.789 7.96796 244.168 8.1973 244.456 8.52796C244.754 8.84796 244.904 9.26396 244.904 9.77596C244.904 10.5013 244.621 11.0933 244.056 11.552C243.501 12 242.738 12.224 241.768 12.224ZM246.696 12.064V4.06396H247.848V10.448L251.752 4.06396H252.792V12.064H251.624V5.50396L247.592 12.064H246.696ZM255.196 4.06396H256.156L256.3 5.02396C256.449 4.7893 256.705 4.54396 257.068 4.28796C257.431 4.03196 257.932 3.90396 258.572 3.90396C259.511 3.90396 260.257 4.25063 260.812 4.94396C261.377 5.6373 261.66 6.60263 261.66 7.83996C261.66 9.18396 261.377 10.2506 260.812 11.04C260.247 11.8293 259.447 12.224 258.412 12.224C257.975 12.224 257.601 12.1706 257.292 12.064C256.993 11.9466 256.764 11.824 256.604 11.696C256.444 11.5573 256.364 11.4773 256.364 11.456H256.348V16.064L255.196 16.096V4.06396ZM258.028 11.456C258.86 11.456 259.468 11.1626 259.852 10.576C260.236 9.97863 260.428 9.0773 260.428 7.87196C260.428 6.75196 260.236 5.9413 259.852 5.43996C259.468 4.93863 258.913 4.68796 258.188 4.68796C257.804 4.68796 257.473 4.76796 257.196 4.92796C256.919 5.08796 256.705 5.26396 256.556 5.45596C256.417 5.6373 256.348 5.74396 256.348 5.77596V10.752C256.465 10.9013 256.657 11.056 256.924 11.216C257.201 11.376 257.569 11.456 258.028 11.456ZM266.246 12.224C265.137 12.224 264.289 11.8613 263.702 11.136C263.126 10.4106 262.838 9.38663 262.838 8.06396C262.838 6.7413 263.126 5.7173 263.702 4.99196C264.289 4.26663 265.137 3.90396 266.246 3.90396C267.355 3.90396 268.198 4.26663 268.774 4.99196C269.361 5.7173 269.654 6.7413 269.654 8.06396C269.654 9.37596 269.355 10.4 268.758 11.136C268.171 11.8613 267.334 12.224 266.246 12.224ZM266.246 11.52C266.993 11.52 267.542 11.2373 267.894 10.672C268.246 10.096 268.422 9.22663 268.422 8.06396C268.422 6.91196 268.246 6.04796 267.894 5.47196C267.542 4.89596 266.993 4.60796 266.246 4.60796C265.499 4.60796 264.95 4.89596 264.598 5.47196C264.246 6.0373 264.07 6.9013 264.07 8.06396C264.07 9.22663 264.246 10.096 264.598 10.672C264.95 11.2373 265.499 11.52 266.246 11.52ZM271.462 4.06396H274.15C275.078 4.06396 275.755 4.25063 276.182 4.62396C276.608 4.9973 276.822 5.50396 276.822 6.14396C276.822 6.6133 276.688 6.98663 276.422 7.26396C276.166 7.5413 275.846 7.75463 275.462 7.90396C275.942 8.0213 276.336 8.23996 276.646 8.55996C276.966 8.87996 277.126 9.27463 277.126 9.74396C277.126 10.4586 276.896 11.024 276.438 11.44C275.99 11.856 275.211 12.064 274.102 12.064H271.462V4.06396ZM274.326 7.69596C274.326 7.7173 274.448 7.69063 274.694 7.61596C274.95 7.5413 275.174 7.3973 275.366 7.18396C275.568 6.95996 275.67 6.63996 275.67 6.22396C275.67 5.21063 275.158 4.70396 274.134 4.70396H272.614V7.69596H274.326ZM274.086 11.424C274.779 11.424 275.259 11.264 275.526 10.944C275.803 10.624 275.942 10.2026 275.942 9.67996C275.942 9.24263 275.798 8.89063 275.51 8.62396C275.222 8.34663 274.795 8.20796 274.23 8.20796H272.614V11.424H274.086ZM280.563 12.224C279.859 12.224 279.293 12.0533 278.867 11.712C278.44 11.36 278.227 10.8746 278.227 10.256C278.227 8.68796 279.736 7.74396 282.755 7.42396V6.57596C282.755 5.81863 282.632 5.3013 282.387 5.02396C282.141 4.74663 281.709 4.60796 281.091 4.60796C280.813 4.60796 280.531 4.6613 280.243 4.76796C279.955 4.86396 279.709 4.97063 279.507 5.08796C279.315 5.19463 279.192 5.26396 279.139 5.29596L279.011 4.63996C279.064 4.5973 279.197 4.5173 279.411 4.39996C279.635 4.28263 279.912 4.17063 280.243 4.06396C280.584 3.9573 280.925 3.90396 281.267 3.90396C282.184 3.90396 282.856 4.09596 283.283 4.47996C283.709 4.86396 283.923 5.5413 283.923 6.51196V10.432C283.923 10.8586 283.96 11.1466 284.035 11.296C284.12 11.4453 284.221 11.52 284.339 11.52C284.435 11.52 284.552 11.504 284.691 11.472C284.829 11.4293 284.92 11.3973 284.963 11.376L285.011 11.92C284.925 11.952 284.744 12.0106 284.467 12.096C284.189 12.1813 283.955 12.224 283.763 12.224C283.485 12.224 283.272 12.1386 283.123 11.968C282.973 11.7866 282.883 11.472 282.851 11.024H282.835C282.835 11.0666 282.749 11.1893 282.579 11.392C282.408 11.5946 282.152 11.7866 281.811 11.968C281.48 12.1386 281.064 12.224 280.563 12.224ZM280.915 11.52C281.299 11.52 281.629 11.4346 281.907 11.264C282.184 11.0933 282.392 10.9066 282.531 10.704C282.68 10.5013 282.755 10.384 282.755 10.352V8.01596C281.784 8.12263 280.984 8.33063 280.355 8.63996C279.736 8.9493 279.427 9.43996 279.427 10.112C279.427 10.5706 279.56 10.9226 279.827 11.168C280.093 11.4026 280.456 11.52 280.915 11.52ZM286.54 12.064V4.06396H287.692V7.58396H291.26V4.06396H292.428V12.064H291.26V8.30396H287.692V12.064H286.54ZM294.805 12.064V4.06396H295.957V7.58396H299.525V4.06396H300.693V12.064H299.525V8.30396H295.957V12.064H294.805ZM303.071 4.06396H304.223V7.08796H305.471C306.442 7.08796 307.21 7.27996 307.775 7.66396C308.34 8.0373 308.623 8.6453 308.623 9.48796C308.623 11.2053 307.583 12.064 305.503 12.064H303.071V4.06396ZM309.999 12.064V4.06396H311.167V12.064H309.999ZM305.471 11.424C306.1 11.424 306.58 11.2746 306.911 10.976C307.242 10.6773 307.407 10.1813 307.407 9.48796C307.407 8.8373 307.22 8.37863 306.847 8.11196C306.484 7.8453 306.015 7.71196 305.439 7.71196H304.223V11.424H305.471ZM312.547 12.064L315.203 8.07996L312.675 4.06396H314.051L316.019 7.40796L318.083 4.06396H319.027L316.547 7.88796L319.235 12.064H317.875L315.731 8.60796L313.507 12.064H312.547ZM324.175 12.176C323.983 12.176 323.829 12.16 323.711 12.128C323.605 12.1066 323.541 12.0906 323.519 12.08L323.567 11.216C323.589 11.2266 323.637 11.2426 323.711 11.264C323.786 11.2746 323.871 11.28 323.967 11.28C325.471 11.28 326.223 8.07463 326.223 1.66396H331.295V12.064H330.095V2.43196H327.055C327.045 5.61063 326.789 8.03196 326.287 9.69596C325.786 11.3493 325.082 12.176 324.175 12.176ZM336.824 12.224C335.758 12.224 334.92 11.8933 334.312 11.232C333.704 10.56 333.4 9.5573 333.4 8.22396C333.4 6.87996 333.694 5.82396 334.28 5.05596C334.867 4.28796 335.667 3.90396 336.68 3.90396C337.598 3.90396 338.302 4.22396 338.792 4.86396C339.294 5.4933 339.544 6.3893 339.544 7.55196C339.544 7.75463 339.534 7.91996 339.512 8.04796C339.491 8.17596 339.475 8.25596 339.464 8.28796H334.616C334.616 10.4426 335.395 11.52 336.952 11.52C337.379 11.52 337.742 11.4453 338.04 11.296C338.35 11.136 338.59 10.9706 338.76 10.8C338.931 10.6186 339.016 10.512 339.016 10.48L339.48 10.864C339.48 10.9066 339.379 11.0453 339.176 11.28C338.974 11.504 338.675 11.7173 338.28 11.92C337.886 12.1226 337.4 12.224 336.824 12.224ZM338.456 7.61596L338.472 7.31196C338.472 5.49863 337.875 4.59196 336.68 4.59196C336.051 4.59196 335.566 4.84263 335.224 5.34396C334.883 5.83463 334.686 6.59196 334.632 7.61596H338.456ZM341.258 12.064V4.06396H342.41V7.72796L343.402 7.18396L345.706 4.06396H346.522L344.154 7.34396L347.002 12.064H345.658L343.29 8.04796L342.41 8.46396V12.064H341.258ZM351.403 12.224C350.294 12.224 349.441 11.8826 348.843 11.2C348.246 10.5173 347.947 9.49863 347.947 8.14396C347.947 6.77863 348.241 5.7333 348.827 5.00796C349.425 4.27196 350.294 3.90396 351.435 3.90396C351.809 3.90396 352.161 3.9573 352.491 4.06396C352.822 4.15996 353.099 4.27196 353.323 4.39996C353.558 4.5173 353.675 4.5813 353.675 4.59196L353.531 5.24796C353.489 5.21596 353.371 5.15196 353.179 5.05596C352.998 4.9493 352.758 4.84796 352.459 4.75196C352.171 4.65596 351.873 4.60796 351.563 4.60796C350.742 4.60796 350.139 4.87996 349.755 5.42396C349.371 5.96796 349.179 6.8693 349.179 8.12796C349.179 9.34396 349.382 10.2133 349.787 10.736C350.193 11.2586 350.763 11.52 351.499 11.52C351.915 11.52 352.267 11.4453 352.555 11.296C352.854 11.1466 353.083 10.992 353.243 10.832C353.403 10.6613 353.483 10.56 353.483 10.528L353.995 10.864C353.995 10.9066 353.899 11.0453 353.707 11.28C353.515 11.504 353.227 11.7173 352.843 11.92C352.459 12.1226 351.979 12.224 351.403 12.224ZM355.321 12.064V4.06396H356.473V10.448L360.377 4.06396H361.417V12.064H360.249V5.50396L356.217 12.064H355.321ZM363.821 12.064V4.06396H364.973V7.72796L365.965 7.18396L368.269 4.06396H369.085L366.717 7.34396L369.565 12.064H368.221L365.853 8.04796L364.973 8.46396V12.064H363.821ZM373.918 12.224C372.809 12.224 371.961 11.8613 371.374 11.136C370.798 10.4106 370.51 9.38663 370.51 8.06396C370.51 6.7413 370.798 5.7173 371.374 4.99196C371.961 4.26663 372.809 3.90396 373.918 3.90396C375.027 3.90396 375.87 4.26663 376.446 4.99196C377.033 5.7173 377.326 6.7413 377.326 8.06396C377.326 9.37596 377.027 10.4 376.43 11.136C375.843 11.8613 375.006 12.224 373.918 12.224ZM373.918 11.52C374.665 11.52 375.214 11.2373 375.566 10.672C375.918 10.096 376.094 9.22663 376.094 8.06396C376.094 6.91196 375.918 6.04796 375.566 5.47196C375.214 4.89596 374.665 4.60796 373.918 4.60796C373.171 4.60796 372.622 4.89596 372.27 5.47196C371.918 6.0373 371.742 6.9013 371.742 8.06396C371.742 9.22663 371.918 10.096 372.27 10.672C372.622 11.2373 373.171 11.52 373.918 11.52ZM379.133 12.064V4.06396H383.277V4.81596H380.285V12.064H379.133ZM384.758 4.06396H385.718L385.862 5.02396C386.012 4.7893 386.268 4.54396 386.63 4.28796C386.993 4.03196 387.494 3.90396 388.134 3.90396C389.073 3.90396 389.82 4.25063 390.374 4.94396C390.94 5.6373 391.222 6.60263 391.222 7.83996C391.222 9.18396 390.94 10.2506 390.374 11.04C389.809 11.8293 389.009 12.224 387.974 12.224C387.537 12.224 387.164 12.1706 386.854 12.064C386.556 11.9466 386.326 11.824 386.166 11.696C386.006 11.5573 385.926 11.4773 385.926 11.456H385.91V16.064L384.758 16.096V4.06396ZM387.59 11.456C388.422 11.456 389.03 11.1626 389.414 10.576C389.798 9.97863 389.99 9.0773 389.99 7.87196C389.99 6.75196 389.798 5.9413 389.414 5.43996C389.03 4.93863 388.476 4.68796 387.75 4.68796C387.366 4.68796 387.036 4.76796 386.758 4.92796C386.481 5.08796 386.268 5.26396 386.118 5.45596C385.98 5.6373 385.91 5.74396 385.91 5.77596V10.752C386.028 10.9013 386.22 11.056 386.486 11.216C386.764 11.376 387.132 11.456 387.59 11.456ZM394.656 12.224C393.952 12.224 393.387 12.0533 392.96 11.712C392.534 11.36 392.32 10.8746 392.32 10.256C392.32 8.68796 393.83 7.74396 396.848 7.42396V6.57596C396.848 5.81863 396.726 5.3013 396.48 5.02396C396.235 4.74663 395.803 4.60796 395.184 4.60796C394.907 4.60796 394.624 4.6613 394.336 4.76796C394.048 4.86396 393.803 4.97063 393.6 5.08796C393.408 5.19463 393.286 5.26396 393.232 5.29596L393.104 4.63996C393.158 4.5973 393.291 4.5173 393.504 4.39996C393.728 4.28263 394.006 4.17063 394.336 4.06396C394.678 3.9573 395.019 3.90396 395.36 3.90396C396.278 3.90396 396.95 4.09596 397.376 4.47996C397.803 4.86396 398.016 5.5413 398.016 6.51196V10.432C398.016 10.8586 398.054 11.1466 398.128 11.296C398.214 11.4453 398.315 11.52 398.432 11.52C398.528 11.52 398.646 11.504 398.784 11.472C398.923 11.4293 399.014 11.3973 399.056 11.376L399.104 11.92C399.019 11.952 398.838 12.0106 398.56 12.096C398.283 12.1813 398.048 12.224 397.856 12.224C397.579 12.224 397.366 12.1386 397.216 11.968C397.067 11.7866 396.976 11.472 396.944 11.024H396.928C396.928 11.0666 396.843 11.1893 396.672 11.392C396.502 11.5946 396.246 11.7866 395.904 11.968C395.574 12.1386 395.158 12.224 394.656 12.224ZM395.008 11.52C395.392 11.52 395.723 11.4346 396 11.264C396.278 11.0933 396.486 10.9066 396.624 10.704C396.774 10.5013 396.848 10.384 396.848 10.352V8.01596C395.878 8.12263 395.078 8.33063 394.448 8.63996C393.83 8.9493 393.52 9.43996 393.52 10.112C393.52 10.5706 393.654 10.9226 393.92 11.168C394.187 11.4026 394.55 11.52 395.008 11.52ZM403.881 12.224H403.817C402.612 12.224 401.679 11.8613 401.017 11.136C400.356 10.4106 400.025 9.38663 400.025 8.06396C400.025 6.7413 400.356 5.7173 401.017 4.99196C401.679 4.26663 402.612 3.90396 403.817 3.90396L403.881 3.91996V0.0959644L405.049 0.0319643V3.90396H405.113C406.319 3.90396 407.252 4.26663 407.913 4.99196C408.585 5.7173 408.921 6.7413 408.921 8.06396C408.921 9.38663 408.585 10.4106 407.913 11.136C407.252 11.8613 406.319 12.224 405.113 12.224L405.049 12.208V16.064L403.881 16.096V12.224ZM405.049 11.52C405.945 11.52 406.617 11.2426 407.065 10.688C407.513 10.1333 407.737 9.25863 407.737 8.06396C407.737 6.87996 407.513 6.01063 407.065 5.45596C406.617 4.89063 405.945 4.60263 405.049 4.59196V11.52ZM403.881 4.60796C402.975 4.61863 402.303 4.9013 401.865 5.45596C401.428 5.99996 401.209 6.8693 401.209 8.06396C401.209 9.25863 401.428 10.1333 401.865 10.688C402.303 11.2426 402.975 11.52 403.881 11.52V4.60796ZM410.712 12.064V4.06396H411.864V10.448L415.768 4.06396H416.808V12.064H415.64V5.50396L411.608 12.064H410.712ZM423.052 8.54396C423.041 8.54396 422.956 8.58663 422.796 8.67196C422.636 8.74663 422.369 8.8213 421.996 8.89596C421.622 8.97063 421.233 9.00796 420.828 9.00796C419.452 9.00796 418.764 8.28263 418.764 6.83196V4.06396H419.932V6.79996C419.932 7.3333 420.033 7.72796 420.236 7.98396C420.449 8.23996 420.78 8.36796 421.228 8.36796C421.558 8.36796 421.857 8.33596 422.124 8.27196C422.39 8.20796 422.598 8.14396 422.748 8.07996C422.908 8.01596 423.009 7.9733 423.052 7.95196V4.06396H424.22V12.064H423.052V8.54396ZM429.434 12.224C428.367 12.224 427.53 11.8933 426.922 11.232C426.314 10.56 426.01 9.5573 426.01 8.22396C426.01 6.87996 426.303 5.82396 426.89 5.05596C427.477 4.28796 428.277 3.90396 429.29 3.90396C430.207 3.90396 430.911 4.22396 431.402 4.86396C431.903 5.4933 432.154 6.3893 432.154 7.55196C432.154 7.75463 432.143 7.91996 432.122 8.04796C432.101 8.17596 432.085 8.25596 432.074 8.28796H427.226C427.226 10.4426 428.005 11.52 429.562 11.52C429.989 11.52 430.351 11.4453 430.65 11.296C430.959 11.136 431.199 10.9706 431.37 10.8C431.541 10.6186 431.626 10.512 431.626 10.48L432.09 10.864C432.09 10.9066 431.989 11.0453 431.786 11.28C431.583 11.504 431.285 11.7173 430.89 11.92C430.495 12.1226 430.01 12.224 429.434 12.224ZM431.066 7.61596L431.082 7.31196C431.082 5.49863 430.485 4.59196 429.29 4.59196C428.661 4.59196 428.175 4.84263 427.834 5.34396C427.493 5.83463 427.295 6.59196 427.242 7.61596H431.066ZM436.716 12.224C435.607 12.224 434.753 11.8826 434.156 11.2C433.559 10.5173 433.26 9.49863 433.26 8.14396C433.26 6.77863 433.553 5.7333 434.14 5.00796C434.737 4.27196 435.607 3.90396 436.748 3.90396C437.121 3.90396 437.473 3.9573 437.804 4.06396C438.135 4.15996 438.412 4.27196 438.636 4.39996C438.871 4.5173 438.988 4.5813 438.988 4.59196L438.844 5.24796C438.801 5.21596 438.684 5.15196 438.492 5.05596C438.311 4.9493 438.071 4.84796 437.772 4.75196C437.484 4.65596 437.185 4.60796 436.876 4.60796C436.055 4.60796 435.452 4.87996 435.068 5.42396C434.684 5.96796 434.492 6.8693 434.492 8.12796C434.492 9.34396 434.695 10.2133 435.1 10.736C435.505 11.2586 436.076 11.52 436.812 11.52C437.228 11.52 437.58 11.4453 437.868 11.296C438.167 11.1466 438.396 10.992 438.556 10.832C438.716 10.6613 438.796 10.56 438.796 10.528L439.308 10.864C439.308 10.9066 439.212 11.0453 439.02 11.28C438.828 11.504 438.54 11.7173 438.156 11.92C437.772 12.1226 437.292 12.224 436.716 12.224ZM440.633 12.064V4.06396H441.785V7.72796L442.777 7.18396L445.081 4.06396H445.897L443.529 7.34396L446.377 12.064H445.033L442.665 8.04796L441.785 8.46396V12.064H440.633ZM447.93 12.064V4.06396H449.082V10.448L452.986 4.06396H454.026V12.064H452.858V5.50396L448.826 12.064H447.93ZM455.422 12.064L458.078 8.07996L455.55 4.06396H456.926L458.894 7.40796L460.958 4.06396H461.902L459.422 7.88796L462.11 12.064H460.75L458.606 8.60796L456.382 12.064H455.422ZM471.386 12.224C469.946 12.224 468.826 11.76 468.026 10.832C467.226 9.8933 466.826 8.60263 466.826 6.95996C466.826 5.8613 467.008 4.9013 467.37 4.07996C467.744 3.25863 468.266 2.6293 468.938 2.19196C469.621 1.74396 470.41 1.51996 471.306 1.51996C471.797 1.51996 472.266 1.58396 472.714 1.71196C473.173 1.83996 473.562 1.98396 473.882 2.14396C474.202 2.30396 474.362 2.3893 474.362 2.39996L474.218 3.16796C474.218 3.1573 474.064 3.0773 473.754 2.92796C473.445 2.77863 473.082 2.63996 472.666 2.51196C472.261 2.38396 471.85 2.31996 471.434 2.31996C470.4 2.31996 469.589 2.71463 469.002 3.50396C468.416 4.28263 468.122 5.42396 468.122 6.92796C468.122 8.41063 468.421 9.53063 469.018 10.288C469.616 11.0453 470.453 11.424 471.53 11.424C472.096 11.424 472.592 11.3066 473.018 11.072C473.445 10.8373 473.781 10.5866 474.026 10.32C474.282 10.0533 474.41 9.89863 474.41 9.85596L474.858 10.368C474.858 10.4213 474.72 10.608 474.442 10.928C474.165 11.2373 473.765 11.5306 473.242 11.808C472.73 12.0853 472.112 12.224 471.386 12.224ZM476.383 12.064V4.06396H477.535V10.448L481.439 4.06396H482.479V12.064H481.311V5.50396L477.279 12.064H476.383ZM487.731 12.224C486.622 12.224 485.769 11.8826 485.171 11.2C484.574 10.5173 484.275 9.49863 484.275 8.14396C484.275 6.77863 484.569 5.7333 485.155 5.00796C485.753 4.27196 486.622 3.90396 487.763 3.90396C488.137 3.90396 488.489 3.9573 488.819 4.06396C489.15 4.15996 489.427 4.27196 489.651 4.39996C489.886 4.5173 490.003 4.5813 490.003 4.59196L489.859 5.24796C489.817 5.21596 489.699 5.15196 489.507 5.05596C489.326 4.9493 489.086 4.84796 488.787 4.75196C488.499 4.65596 488.201 4.60796 487.891 4.60796C487.07 4.60796 486.467 4.87996 486.083 5.42396C485.699 5.96796 485.507 6.8693 485.507 8.12796C485.507 9.34396 485.71 10.2133 486.115 10.736C486.521 11.2586 487.091 11.52 487.827 11.52C488.243 11.52 488.595 11.4453 488.883 11.296C489.182 11.1466 489.411 10.992 489.571 10.832C489.731 10.6613 489.811 10.56 489.811 10.528L490.323 10.864C490.323 10.9066 490.227 11.0453 490.035 11.28C489.843 11.504 489.555 11.7173 489.171 11.92C488.787 12.1226 488.307 12.224 487.731 12.224ZM493.153 12.064V4.81596H490.721V4.06396H496.737L496.721 4.81596H494.305V12.064H493.153ZM501.028 12.224C499.961 12.224 499.124 11.8933 498.516 11.232C497.908 10.56 497.604 9.5573 497.604 8.22396C497.604 6.87996 497.897 5.82396 498.484 5.05596C499.07 4.28796 499.87 3.90396 500.884 3.90396C501.801 3.90396 502.505 4.22396 502.996 4.86396C503.497 5.4933 503.748 6.3893 503.748 7.55196C503.748 7.75463 503.737 7.91996 503.716 8.04796C503.694 8.17596 503.678 8.25596 503.668 8.28796H498.82C498.82 10.4426 499.598 11.52 501.156 11.52C501.582 11.52 501.945 11.4453 502.244 11.296C502.553 11.136 502.793 10.9706 502.964 10.8C503.134 10.6186 503.22 10.512 503.22 10.48L503.684 10.864C503.684 10.9066 503.582 11.0453 503.38 11.28C503.177 11.504 502.878 11.7173 502.484 11.92C502.089 12.1226 501.604 12.224 501.028 12.224ZM502.66 7.61596L502.676 7.31196C502.676 5.49863 502.078 4.59196 500.884 4.59196C500.254 4.59196 499.769 4.84263 499.428 5.34396C499.086 5.83463 498.889 6.59196 498.836 7.61596H502.66ZM505.414 12.064L505.638 4.06396H507.062L509.446 10.88L511.958 4.06396H513.366L513.478 12.064H512.406L512.342 5.71196L512.326 5.24796L509.734 12.064H508.838L506.31 5.24796L506.294 5.42396L506.166 12.064H505.414Z" fill="#2D4F45"/>
</svg>
