<svg width="40" height="40" viewBox="0 0 40 40" fill="none" xmlns="http://www.w3.org/2000/svg">
<mask id="mask0_144_1346" style="mask-type:alpha" maskUnits="userSpaceOnUse" x="0" y="0" width="40" height="40">
<rect width="40" height="40" fill="#D9D9D9"/>
</mask>
<g mask="url(#mask0_144_1346)">
<path d="M10.4808 26.1858H23.6858V23.6858H10.4808V26.1858ZM27.0191 26.1858H29.5191V23.6858H27.0191V26.1858ZM10.4808 19.8717H12.9808V17.3717H10.4808V19.8717ZM16.3141 19.8717H29.5191V17.3717H16.3141V19.8717ZM7.17954 32.5C6.3376 32.5 5.62496 32.2083 5.04163 31.625C4.45829 31.0417 4.16663 30.329 4.16663 29.4871V10.5129C4.16663 9.67097 4.45829 8.95833 5.04163 8.375C5.62496 7.79167 6.3376 7.5 7.17954 7.5H32.8204C33.6623 7.5 34.375 7.79167 34.9583 8.375C35.5416 8.95833 35.8333 9.67097 35.8333 10.5129V29.4871C35.8333 30.329 35.5416 31.0417 34.9583 31.625C34.375 32.2083 33.6623 32.5 32.8204 32.5H7.17954ZM7.17954 30H32.8204C32.9487 30 33.0662 29.9465 33.1729 29.8396C33.2798 29.7329 33.3333 29.6154 33.3333 29.4871V10.5129C33.3333 10.3846 33.2798 10.2671 33.1729 10.1604C33.0662 10.0535 32.9487 10 32.8204 10H7.17954C7.05121 10 6.93371 10.0535 6.82704 10.1604C6.7201 10.2671 6.66663 10.3846 6.66663 10.5129V29.4871C6.66663 29.6154 6.7201 29.7329 6.82704 29.8396C6.93371 29.9465 7.05121 30 7.17954 30Z" fill="#19111D"/>
</g>
</svg>
